<svg width="52" height="41" viewBox="0 0 52 41" fill="none" xmlns="http://www.w3.org/2000/svg">
<path fill-rule="evenodd" clip-rule="evenodd" d="M51.9114 0.517649C51.9114 0.379609 51.8688 0.267452 51.7836 0.181177C51.6983 0.0949023 51.5705 0.0517648 51.4 0.0517648C50.4794 0.0345099 49.3287 0.0129412 48.6382 0C48.5018 0 48.3825 0.0517649 48.2802 0.155295C48.1779 0.258825 48.1268 0.379609 48.1268 0.517649C48.195 2.0706 48.2461 3.62355 48.2802 5.1765C48.3143 6.72944 48.3484 8.28239 48.3825 9.83534C48.4166 11.3538 48.4422 12.8895 48.4592 14.4424C48.4763 15.9954 48.4848 17.5483 48.4848 19.1013C47.8369 19.1358 47.1806 19.1617 46.5157 19.1789C45.8508 19.1962 45.1774 19.2221 44.4955 19.2566C43.7113 16.0816 42.6543 13.295 41.3246 10.8965C39.9948 8.49808 38.3241 6.50513 36.3124 4.91767C34.3349 3.2957 31.9737 2.08785 29.229 1.29412C26.4842 0.500394 23.3047 0.10353 19.6905 0.10353C19.7928 2.65727 20.1935 5.03846 20.8924 7.24709C21.5914 9.45573 22.5546 11.4055 23.7821 13.0965C25.0437 14.7875 26.5354 16.1766 28.2572 17.2636C29.9791 18.3507 31.897 19.0322 34.0109 19.3083C33.1244 19.3083 32.255 19.2997 31.4026 19.2824C30.5502 19.2652 29.6978 19.2393 28.8454 19.2048V19.2048C28.3339 18.7907 27.1747 18.0573 25.3676 17.0048C23.5605 15.9522 21.3272 15.1671 18.6677 14.6495C16.0423 14.1318 13.11 14.1836 9.87085 14.8048C6.63171 15.426 3.34143 17.186 0 20.0848C1.84119 21.9483 3.98925 23.4668 6.44418 24.6401C8.8991 25.8135 11.4052 26.5382 13.9624 26.8142C16.5537 27.0558 19.0683 26.8056 21.5062 26.0637C23.944 25.3217 26.0495 23.9844 27.8225 22.0519C28.9818 22.0174 30.1751 21.9829 31.4026 21.9483C32.6301 21.9138 33.8746 21.8966 35.1361 21.8966C34.3178 22.0346 33.1415 22.4142 31.6072 23.0354C30.0728 23.6566 28.4703 24.6919 26.7996 26.1413C25.163 27.5562 23.6116 29.4629 22.1455 31.8613C20.6793 34.2598 19.6224 37.3053 18.9745 40.9978C23.3729 41.0324 27.0894 40.6527 30.124 39.859C33.1585 39.0653 35.6646 37.8747 37.6422 36.2872C39.6539 34.6998 41.1967 32.7068 42.2707 30.3084C43.3448 27.9099 44.1034 25.1233 44.5467 21.9483C45.1945 21.9829 45.8508 22.0087 46.5157 22.026C47.1806 22.0432 47.8369 22.0691 48.4848 22.1036C48.4848 23.6221 48.4763 25.1319 48.4592 26.6331C48.4422 28.1343 48.4166 29.6441 48.3825 31.1625C48.3484 32.6464 48.3143 34.139 48.2802 35.6402C48.2461 37.1414 48.195 38.6512 48.1268 40.1696C48.1268 40.3076 48.1779 40.3853 48.2802 40.4026C48.3825 40.4198 48.5018 40.4284 48.6382 40.4284C49.5588 40.4284 50.7096 40.4284 51.4 40.4284C51.5364 40.4284 51.6557 40.4198 51.758 40.4026C51.8603 40.3853 51.9114 40.3076 51.9114 40.1696C51.8433 38.5131 51.7921 36.8653 51.758 35.2261C51.7239 33.5868 51.6898 31.9562 51.6557 30.3343C51.6216 28.6778 51.6046 27.0299 51.6046 25.3907C51.6046 23.7515 51.6046 22.1036 51.6046 20.4472C51.6046 18.7562 51.6046 17.0824 51.6046 15.426C51.6046 13.7695 51.6216 12.113 51.6557 10.4565C51.6898 8.80004 51.7239 7.15219 51.758 5.51297C51.7921 3.87374 51.8433 2.20864 51.9114 0.517649V0.517649V0.517649ZM26.0837 3.2606C28.1294 3.36413 29.9536 3.8559 31.5561 4.7359C33.1586 5.61591 34.5395 6.76336 35.6988 8.17827C36.8922 9.55867 37.8895 11.1375 38.6907 12.9148C39.492 14.692 40.0972 16.5297 40.5064 18.4277C38.8697 18.7038 37.199 18.6779 35.4942 18.3501C33.7894 18.0222 32.238 17.2716 30.8401 16.0983C29.4421 14.925 28.2999 13.2944 27.4134 11.2065C26.5269 9.11867 26.0837 6.47003 26.0837 3.2606V3.2606V3.2606ZM7.77387 19.3601C9.47868 17.7726 11.2091 16.7891 12.965 16.4095C14.721 16.0299 16.3832 16.0299 17.9516 16.4095C19.52 16.7891 20.918 17.4707 22.1454 18.4542C23.3729 19.4377 24.3105 20.5162 24.9584 21.6895C23.2876 23.1734 21.4976 24.0362 19.5882 24.2777C17.6788 24.5193 15.8888 24.3985 14.2181 23.9154C12.5473 23.4323 11.1153 22.7421 9.92193 21.8448C8.72857 20.9475 8.01255 20.1193 7.77387 19.3601V19.3601V19.3601ZM25.1122 37.2186C25.385 35.1135 25.9902 33.1551 26.9279 31.3433C27.8655 29.5315 28.9992 27.9527 30.329 26.6068C31.6587 25.2264 33.1163 24.1307 34.7018 23.3197C36.2873 22.5088 37.8813 22.0342 39.4838 21.8962C39.6543 21.8962 39.8247 21.8962 39.9952 21.8962C40.1657 21.8962 40.3362 21.8962 40.5067 21.8962C40.2339 24.2429 39.7651 26.417 39.1002 28.4186C38.4353 30.4202 37.4892 32.1111 36.2617 33.4915C35.0683 34.8719 33.5596 35.9072 31.7354 36.5974C29.9113 37.2876 27.7036 37.4947 25.1122 37.2186V37.2186V37.2186Z" fill="white"/>
</svg>
