<svg width="55" height="25" viewBox="0 0 55 25" fill="none" xmlns="http://www.w3.org/2000/svg">
<path d="M21.7128 6.70168C21.7128 8.6879 22.8684 10.1445 25.5769 10.1445C28.2853 10.1445 29.4289 8.6879 29.4289 6.68965V1.97089H26.9612V6.61742C26.9612 7.38783 26.564 8.00175 25.5769 8.00175C24.5777 8.00175 24.1805 7.38783 24.1805 6.61742V1.97089H21.7128V6.70168ZM34.8823 10V4.08951H37.025V1.97089H30.2959V4.08951H32.4506V10H34.8823ZM45.2847 10L42.3234 1.97089H39.2658L36.3046 10H38.9408L39.2538 8.96476H42.3354L42.6484 10H45.2847ZM41.7095 6.94244H39.8798L40.7946 4.11359L41.7095 6.94244ZM53.4578 10V1.97089H51.0262V4.81177H48.1492V1.97089H45.7175V10H48.1492V6.9304H51.0262V10H53.4578ZM21.7128 18.7017C21.7128 20.6879 22.8684 22.1445 25.5769 22.1445C28.2853 22.1445 29.4289 20.6879 29.4289 18.6896V13.9709H26.9612V18.6174C26.9612 19.3878 26.564 20.0017 25.5769 20.0017C24.5777 20.0017 24.1805 19.3878 24.1805 18.6174V13.9709H21.7128V18.7017ZM38.5297 22L35.8453 17.8711L38.3491 13.9709H35.4721L34.1961 16.258L32.896 13.9709H30.0431L32.5469 17.8831L29.8625 22H32.7275L34.1961 19.5443L35.6647 22H38.5297Z" fill="#14355E"/>
<path d="M40.0621 21.5615H40.349V20.4741H40.7382V20.2233H39.6709V20.4741H40.0621V21.5615ZM42.0845 21.5615H42.3714V20.2233H41.9701L41.6451 21.0579L41.3201 20.2233H40.9209V21.5615H41.2057V20.5985L41.5829 21.5615H41.7073L42.0845 20.5985V21.5615Z" fill="#14355E"/>
<path d="M17.0502 20.4959L17.0502 1.97881L17.0502 1.59518C17.0502 0.856971 16.2785 0.372641 15.6137 0.693641L1.69423 7.41505C1.28504 7.61264 1.06024 8.06102 1.14671 8.50712L3.26557 19.4373C3.28464 19.5357 3.33423 19.6256 3.4073 19.6942C3.71163 19.9798 4.21005 19.764 4.21005 19.3466L4.21005 11.9893C4.21005 11.614 4.41992 11.2702 4.75373 11.0988L9.81354 8.49956C10.4798 8.15731 11.2721 8.64107 11.2721 9.39008L11.2721 22.4355C11.2721 23.1845 12.0645 23.6683 12.7307 23.326L16.5065 21.3864C16.8403 21.2149 17.0502 20.8712 17.0502 20.4959Z" fill="#006CF3" stroke="#006CF3" stroke-width="0.500571"/>
</svg>
