<svg width="39" height="30" viewBox="0 0 39 30" fill="none" xmlns="http://www.w3.org/2000/svg">
<path fill-rule="evenodd" clip-rule="evenodd" d="M38.3682 0.378012C38.3682 0.277209 38.3367 0.195306 38.2737 0.132304C38.2107 0.0693021 38.1162 0.0378011 37.9902 0.0378011C37.3098 0.0252008 36.4593 0.00945028 35.949 0C35.8482 0 35.76 0.0378012 35.6844 0.113404C35.6088 0.189006 35.5709 0.277209 35.5709 0.378012C35.6214 1.51205 35.6592 2.64609 35.6844 3.78012C35.7096 4.91416 35.7348 6.0482 35.76 7.18223C35.7852 8.29107 35.8041 9.4125 35.8167 10.5465C35.8293 11.6806 35.8356 12.8146 35.8356 13.9487C35.3567 13.9739 34.8716 13.9928 34.3802 14.0054C33.8888 14.018 33.3911 14.0369 32.8871 14.0621C32.3074 11.7436 31.5262 9.70861 30.5434 7.95716C29.5606 6.2057 28.3257 4.75035 26.8389 3.59112C25.3772 2.40668 23.6321 1.52465 21.6034 0.94503C19.5747 0.365412 17.2248 0.0756023 14.5535 0.0756023C14.6291 1.94046 14.9252 3.67932 15.4418 5.29217C15.9584 6.90502 16.6703 8.32887 17.5776 9.56371C18.51 10.7985 19.6125 11.8129 20.8852 12.6067C22.1578 13.4005 23.5754 13.8982 25.1378 14.0999C24.4826 14.0999 23.84 14.0936 23.2099 14.081C22.5799 14.0684 21.9499 14.0495 21.3199 14.0243V14.0243C20.9419 13.7218 20.0851 13.1863 18.7494 12.4177C17.4138 11.6491 15.7631 11.0758 13.7974 10.6977C11.857 10.3197 9.68971 10.3575 7.29564 10.8111C4.90156 11.2648 2.46968 12.55 0 14.6669C1.36084 16.0277 2.9485 17.1366 4.76295 17.9934C6.57741 18.8502 8.42967 19.3794 10.3197 19.581C12.235 19.7574 14.0936 19.5747 15.8954 19.0329C17.6973 18.4911 19.2534 17.5146 20.5639 16.1033C21.4207 16.0781 22.3027 16.0529 23.21 16.0277C24.1172 16.0025 25.037 15.9899 25.9694 15.9899C25.3646 16.0907 24.4952 16.3679 23.3612 16.8215C22.2271 17.2752 21.0427 18.0312 19.8078 19.0896C18.5982 20.1228 17.4516 21.5152 16.3679 23.2667C15.2843 25.0181 14.5031 27.2421 14.0243 29.9386C17.2752 29.9638 20.022 29.6866 22.2649 29.1069C24.5078 28.5273 26.3601 27.6579 27.8217 26.4987C29.3085 25.3394 30.4489 23.8841 31.2427 22.1326C32.0365 20.3812 32.5973 18.3462 32.9249 16.0277C33.4037 16.0529 33.8888 16.0718 34.3802 16.0844C34.8716 16.097 35.3567 16.1159 35.8356 16.1411C35.8356 17.25 35.8293 18.3525 35.8167 19.4487C35.8041 20.545 35.7852 21.6475 35.76 22.7563C35.7348 23.84 35.7096 24.9299 35.6844 26.0261C35.6592 27.1224 35.6214 28.2249 35.5709 29.3337C35.5709 29.4346 35.6088 29.4913 35.6844 29.5039C35.76 29.5165 35.8482 29.5228 35.949 29.5228C36.6294 29.5228 37.4799 29.5228 37.9902 29.5228C38.091 29.5228 38.1792 29.5165 38.2548 29.5039C38.3304 29.4913 38.3682 29.4346 38.3682 29.3337C38.3178 28.1241 38.28 26.9208 38.2548 25.7237C38.2296 24.5267 38.2044 23.336 38.1792 22.1515C38.154 20.9419 38.1414 19.7385 38.1414 18.5415C38.1414 17.3445 38.1414 16.1411 38.1414 14.9315C38.1414 13.6966 38.1414 12.4744 38.1414 11.2648C38.1414 10.0551 38.154 8.84549 38.1792 7.63585C38.2044 6.42621 38.2296 5.22287 38.2548 4.02583C38.28 2.82879 38.3178 1.61285 38.3682 0.378012V0.378012V0.378012ZM19.2786 2.38148C20.7906 2.45708 22.1389 2.81619 23.3233 3.45882C24.5078 4.10144 25.5284 4.93936 26.3852 5.9726C27.2672 6.98063 28.0044 8.13357 28.5966 9.43141C29.1888 10.7293 29.6361 12.0712 29.9385 13.4572C28.7289 13.6588 27.494 13.6399 26.234 13.4005C24.974 13.1611 23.8273 12.613 22.7941 11.7562C21.7609 10.8994 20.9166 9.70862 20.2614 8.18397C19.6062 6.65932 19.2786 4.72516 19.2786 2.38148V2.38148V2.38148ZM5.7457 14.1376C7.00574 12.9784 8.28468 12.2602 9.58252 11.983C10.8804 11.7058 12.1089 11.7058 13.2681 11.983C14.4274 12.2602 15.4606 12.7579 16.3678 13.4761C17.2751 14.1944 17.9681 14.9819 18.4469 15.8387C17.2121 16.9223 15.889 17.5524 14.4778 17.7288C13.0665 17.9052 11.7435 17.817 10.5087 17.4642C9.27381 17.1113 8.21538 16.6073 7.33335 15.9521C6.45132 15.2969 5.9221 14.6921 5.7457 14.1376V14.1376V14.1376ZM18.5604 27.1791C18.762 25.6418 19.2093 24.2117 19.9023 22.8886C20.5953 21.5656 21.4333 20.4127 22.4161 19.4298C23.3989 18.4218 24.4763 17.6217 25.6481 17.0295C26.8199 16.4372 27.9981 16.0907 29.1825 15.9899C29.3085 15.9899 29.4345 15.9899 29.5605 15.9899C29.6865 15.9899 29.8125 15.9899 29.9385 15.9899C29.7369 17.7036 29.3904 19.2912 28.899 20.7529C28.4076 22.2145 27.7083 23.4494 26.801 24.4574C25.919 25.4654 24.8039 26.2214 23.4556 26.7255C22.1074 27.2295 20.4756 27.3807 18.5604 27.1791V27.1791V27.1791Z" fill="#006CF3"/>
</svg>
