<svg width="50" height="50" viewBox="0 0 50 50" fill="none" xmlns="http://www.w3.org/2000/svg">
<path d="M25.0009 1C11.746 1 1 11.746 1 25.0012C1 38.2549 11.746 49.0023 25.0009 49.0023C38.2558 49.0023 49.0006 38.2549 49.0006 25.0012C49.0009 11.746 38.2561 1 25.0009 1Z" fill="#006CF3" stroke="white" stroke-width="0.80358" stroke-linecap="round" stroke-linejoin="round"/>
<path d="M25.9986 2.14642C13.3812 1.59584 2.70337 11.3775 2.15279 23.9972C1.60337 36.6146 11.3853 47.2916 24.003 47.8402C36.6213 48.3922 47.298 38.6091 47.8486 25.992C48.3991 13.3737 38.6172 2.69728 25.9986 2.14642Z" fill="white"/>
<path d="M25.0004 9.39282C16.3858 9.39282 9.40002 16.3763 9.40002 24.9941C9.40002 33.6094 16.3855 40.5931 25.0004 40.5931C33.6171 40.5931 40.6009 33.6094 40.6009 24.9941C40.6009 16.3765 33.6174 9.39282 25.0004 9.39282Z" fill="#006CF3"/>
<path fill-rule="evenodd" clip-rule="evenodd" d="M25.0008 10.4233C16.9569 10.4233 10.4348 16.9454 10.4348 24.989C10.4348 33.034 16.9569 39.5561 25.0008 39.5561C33.0447 39.5561 39.5664 33.034 39.5664 24.989C39.5664 16.9451 33.0447 10.4233 25.0008 10.4233Z" stroke="white" stroke-width="0.80358" stroke-linecap="round" stroke-linejoin="round"/>
<path d="M22.1951 36.078C22.0496 36.078 21.8175 36.078 21.7135 36.0919C21.6928 36.0988 21.7031 36.026 21.7135 36.026C21.9283 36.0018 22.0219 35.9949 22.0219 35.7073V34.8345C22.0219 34.547 21.9283 34.5366 21.7135 34.5123C21.7031 34.5123 21.6928 34.443 21.7135 34.4499C21.8175 34.4638 22.0496 34.4638 22.1951 34.4638C22.2991 34.4638 22.5277 34.4601 22.6005 34.4499C22.6213 34.443 22.6178 34.5123 22.6074 34.5123C22.3822 34.5331 22.3025 34.5643 22.3025 34.8345V35.7073C22.3025 35.9778 22.3822 36.0053 22.6074 36.026C22.6178 36.026 22.6213 36.0988 22.6005 36.0919C22.5277 36.0815 22.2991 36.078 22.1951 36.078Z" fill="white"/>
<path fill-rule="evenodd" clip-rule="evenodd" d="M23.2723 35.5586C23.2723 35.3019 23.4698 35.0805 23.8024 34.9419C23.5807 34.7998 23.3936 34.6439 23.3936 34.3838C23.3936 34.02 23.6881 33.7671 24.0623 33.7671C24.3741 33.7671 24.6305 33.9888 24.6305 34.2729C24.6305 34.5154 24.4849 34.6783 24.2008 34.8307C24.4468 34.9832 24.679 35.1564 24.679 35.4616C24.679 35.8357 24.3775 36.1299 23.9445 36.1299C23.5842 36.1302 23.2723 35.8946 23.2723 35.5586ZM23.5397 35.5583C23.5397 35.8701 23.7753 36.0222 23.9866 36.0222C24.2742 36.0222 24.4405 35.8421 24.4405 35.6099C24.4405 35.3223 24.1919 35.1735 23.9409 35.0233L23.9139 35.0071C23.6679 35.1286 23.5397 35.2915 23.5397 35.5583ZM24.097 34.7684C23.8614 34.6264 23.6431 34.4843 23.6431 34.2314C23.6431 34.0166 23.7852 33.8711 24 33.8711C24.2217 33.8711 24.3846 34.0443 24.3846 34.2903C24.3846 34.4913 24.2806 34.6541 24.097 34.7684Z" fill="white"/>
<path d="M25.5421 36.605C25.9509 35.9225 26.339 35.2154 26.6057 34.7307H25.8955C25.5664 34.7307 25.5109 34.7861 25.4971 34.9974C25.4971 35.0044 25.4347 35.0044 25.4347 34.994C25.4278 34.9108 25.4552 34.5609 25.4693 34.5087C25.4794 34.4705 25.4936 34.4535 25.5352 34.4535C25.646 34.4535 25.8712 34.4639 26.093 34.4639C26.3944 34.4639 26.5679 34.4601 26.7859 34.4463C26.7997 34.4463 26.8413 34.519 26.8309 34.5367C26.5156 35.1118 26.0341 36.0264 25.7015 36.6708C25.6839 36.702 25.5213 36.6362 25.5421 36.605Z" fill="white"/>
<path d="M27.7518 34.6545C27.6513 34.6545 27.5751 34.7793 27.5751 34.9005C27.5751 35.0079 27.6098 35.0668 28.0327 35.2678C28.3408 35.4133 28.4759 35.6243 28.4759 35.8602C28.4759 36.2344 28.1297 36.5497 27.468 36.6779C27.4472 36.6813 27.44 36.6155 27.4472 36.6155C27.8142 36.522 28.1956 36.3037 28.1956 35.95C28.1956 35.756 28.1124 35.6281 27.8075 35.4892C27.5546 35.3749 27.423 35.2744 27.423 35.0804C27.423 34.9938 27.4645 34.8344 27.4992 34.7478C27.6066 34.4914 27.7071 34.3912 27.8387 34.3912C27.9499 34.3912 28.102 34.4845 28.2822 34.4845C28.3653 34.4845 28.3965 34.436 28.4277 34.2977C28.4277 34.2908 28.4904 34.2873 28.4904 34.3043C28.4834 34.6442 28.3864 34.7582 28.227 34.7582C28.0466 34.7585 27.9149 34.6545 27.7518 34.6545Z" fill="white"/>
<path d="M8.88382 34.285L8.63985 35.1956L7.72925 34.9514L7.97321 34.0408L8.88382 34.285Z" fill="#006CF3"/>
<path fill-rule="evenodd" clip-rule="evenodd" d="M8.09565 30.8822L8.09421 30.8777C8.07938 30.8319 8.05638 30.7491 8.03174 30.6605C8.00315 30.5576 7.97236 30.4468 7.94957 30.3765C7.75757 29.7815 7.27484 29.4818 6.83628 29.6233C6.49675 29.7327 6.33536 30.1077 6.45402 30.5654C6.26925 30.2963 5.96177 30.1649 5.74234 30.2356C5.35084 30.3618 5.27347 30.8365 5.41667 31.2802C5.43937 31.3505 5.47829 31.4555 5.51413 31.5523C5.54485 31.6352 5.57331 31.712 5.5873 31.7554C5.6615 31.9853 5.72213 32.1732 5.74667 32.3383C5.75302 32.3941 5.85436 32.3326 5.84917 32.3167C5.77988 31.9587 5.82549 31.8862 6.3215 31.7263L7.50148 31.3455C7.99749 31.1855 8.07689 31.2176 8.22471 31.5504C8.22991 31.566 8.34424 31.5637 8.3223 31.5132C8.24974 31.3592 8.16777 31.1055 8.09565 30.8822ZM5.95395 30.6231C6.23573 30.5318 6.43639 30.5997 6.5897 31.0749C6.59489 31.0908 6.715 31.0518 6.7098 31.0365C6.47392 30.5018 6.69075 30.1377 7.07185 30.0145C7.43707 29.8967 7.66141 30.0376 7.80114 30.4709C7.89232 30.7534 7.80955 30.78 7.42282 30.9045C7.40909 30.9089 7.39498 30.9135 7.38049 30.9181L6.18492 31.3039C5.89793 31.3962 5.7761 31.4297 5.64762 31.4424C5.63817 31.4131 5.63031 31.3983 5.62265 31.3838C5.61532 31.37 5.60817 31.3565 5.59998 31.331C5.49229 30.9969 5.56765 30.7478 5.95395 30.6231Z" fill="#006CF3"/>
<path fill-rule="evenodd" clip-rule="evenodd" d="M6.18251 28.0155L6.18251 28.0155C6.17039 27.9344 6.13574 27.812 6.10572 27.7167C6.71923 27.4424 7.27357 26.8442 7.14134 25.9544C7.13643 25.9218 7.03595 25.9533 7.03826 25.9697C7.10842 26.442 6.43629 27.0688 5.91488 27.3682C5.73154 27.0683 5.43647 26.9124 5.16537 26.9528C4.73114 27.0172 4.55618 27.4427 4.66503 28.1752C4.73114 28.6201 4.82469 29.0997 4.90466 29.2654C4.91506 29.2972 5.01408 29.2547 4.99994 29.2345C4.98002 29.1762 4.96731 29.1283 4.96096 29.0849C4.93267 28.8953 5.02303 28.7928 5.49508 28.7226L6.72154 28.5404C7.2369 28.4636 7.31168 28.5191 7.40205 28.8661C7.40435 28.8823 7.52071 28.8817 7.50512 28.8508C7.45748 28.6805 7.41792 28.4145 7.38241 28.1758C7.35643 28.002 7.32092 27.7242 7.31861 27.5972C7.32438 27.5631 7.21236 27.5908 7.21467 27.607C7.2369 27.9809 7.1448 28.0334 6.65658 28.1062L6.2007 28.1738C6.19868 28.1241 6.19464 28.097 6.18251 28.0155ZM5.39202 28.294C5.09897 28.3373 4.93989 28.35 4.86078 28.3396C4.85597 28.3196 4.85186 28.3046 4.84817 28.2911C4.84103 28.265 4.83551 28.2448 4.8296 28.2054C4.75944 27.7336 4.88359 27.4487 5.33947 27.3811C5.70845 27.3263 5.94606 27.5073 6.02604 28.0446C6.0317 28.083 6.03411 28.1103 6.03629 28.1351C6.03812 28.1558 6.03979 28.1748 6.04307 28.197L5.39202 28.294Z" fill="#006CF3"/>
<path d="M7.10748 25.0412C7.10892 25.2878 7.11036 25.5514 7.13317 25.7267C7.14443 25.7705 7.02895 25.744 7.02895 25.7327C6.98853 25.3707 6.91692 25.3164 6.40128 25.319L5.16154 25.3259C4.64041 25.3288 4.56938 25.384 4.53301 25.7463C4.53301 25.7573 4.42358 25.7798 4.42878 25.7362C4.45534 25.5658 4.45361 25.3025 4.45245 25.0557C4.45159 24.8911 4.43917 24.6059 4.42185 24.48C4.41608 24.4361 4.52608 24.4575 4.52608 24.4684C4.55581 24.8469 4.67101 24.8845 5.15923 24.8819L6.39897 24.8749C6.88719 24.8721 6.99141 24.8331 7.02202 24.4546C7.02202 24.4436 7.13144 24.4211 7.12624 24.465C7.11065 24.5911 7.10661 24.8764 7.10748 25.0412Z" fill="#006CF3"/>
<path d="M7.23148 21.2142C7.37151 21.5993 7.44109 21.936 7.38393 22.3433C7.25285 23.2834 6.54203 23.7713 5.83584 23.6726C5.09153 23.5687 4.46993 22.8229 4.60043 21.8883C4.65413 21.5026 4.89809 21.1045 4.97316 21.043C5.00491 21.0141 5.35801 21.0248 5.61035 21.082C5.63749 21.0857 5.61208 21.1873 5.6014 21.1859C5.27775 21.1628 4.83255 21.4553 4.7546 22.0151C4.66972 22.6237 5.01415 23.0926 5.74749 23.1951C6.63327 23.3186 7.13534 22.857 7.21705 22.27C7.27623 21.8462 7.18182 21.7665 7.12524 21.7365C7.08395 21.714 6.96067 21.6857 6.86828 21.673C6.34657 21.6002 6.32261 21.6135 6.22935 22.0437C6.22704 22.0598 6.11618 22.061 6.12628 22.0292C6.1667 21.8574 6.22012 21.5549 6.25332 21.3158C6.27699 21.1475 6.30558 20.9021 6.30673 20.7748C6.30038 20.7407 6.40749 20.7667 6.40518 20.7828C6.38613 21.1567 6.43521 21.1637 6.95143 21.2358C7.07096 21.2529 7.16421 21.2604 7.23148 21.2142Z" fill="#006CF3"/>
<path d="M8.24198 18.7471C8.23823 18.7748 8.13833 18.7284 8.14353 18.7128C8.21196 18.3998 8.15941 18.3175 7.67754 18.1495L7.1492 17.9653L6.66502 19.3537L7.19337 19.5379C7.64925 19.697 7.77253 19.6935 7.90678 19.3915C7.91227 19.3759 8.02458 19.4037 8.00321 19.4311C7.94432 19.55 7.85972 19.7761 7.80198 19.9418C7.72432 20.1644 7.62298 20.4546 7.58602 20.6275C7.58573 20.6622 7.48237 20.6088 7.48757 20.5932C7.57823 20.1832 7.53925 20.1289 7.04699 19.9571L5.87625 19.5489C5.38399 19.3774 5.30951 19.3918 5.1305 19.7712C5.12502 19.7868 5.01271 19.7591 5.03407 19.7316C5.11607 19.5801 5.21712 19.2902 5.29478 19.0673C5.35252 18.9016 5.42153 18.67 5.44953 18.5401C5.45011 18.5055 5.5552 18.5537 5.54972 18.5693C5.46714 18.8889 5.56184 18.9683 6.02263 19.1291L6.51489 19.3006L6.99878 17.9122L6.50652 17.7407C6.01946 17.5709 5.92216 17.6009 5.78617 17.8905C5.78069 17.9061 5.66838 17.8784 5.68252 17.8544C5.76452 17.7028 5.84709 17.4817 5.92476 17.2591C5.98452 17.0882 6.07893 16.7841 6.10491 16.6594C6.1052 16.6248 6.21405 16.6626 6.2051 16.6886C6.09539 17.1035 6.18662 17.1583 6.65261 17.3209L7.82335 17.7291C8.28962 17.8917 8.3849 17.9018 8.56188 17.5103C8.57083 17.4846 8.67967 17.5224 8.6586 17.5498C8.60143 17.6636 8.49143 17.9624 8.43196 18.1333C8.35487 18.3565 8.27894 18.5742 8.24198 18.7471Z" fill="#006CF3"/>
<path fill-rule="evenodd" clip-rule="evenodd" d="M9.5838 15.7225C9.57543 15.7369 9.66695 15.8091 9.67388 15.775C9.74317 15.6122 9.89215 15.3561 10.0108 15.1523C10.1018 14.9961 10.225 14.7948 10.3056 14.6892C10.3316 14.6661 10.2265 14.6178 10.2181 14.632C9.99418 14.9525 9.78261 14.9219 9.3723 14.8625C9.36681 14.8617 9.36128 14.8609 9.35572 14.8601L7.23713 14.5419C7.20306 14.535 7.18025 14.5849 7.19844 14.6083L8.46215 16.3966C8.75577 16.8086 8.81207 17.0061 8.69312 17.2544C8.68474 17.2685 8.77136 17.3378 8.7832 17.3066C8.85504 17.1393 8.87441 17.106 8.99288 16.9025L8.99309 16.9022C9.08115 16.7503 9.17152 16.6059 9.24918 16.5052C9.27517 16.4821 9.17556 16.4243 9.1617 16.448C9.15272 16.4606 9.14413 16.4728 9.13586 16.4845C9.05005 16.6063 8.99987 16.6774 8.9264 16.6345C8.8317 16.5794 8.72459 16.4471 8.5681 16.2358L8.38015 15.9806L8.82708 15.2123L9.12792 15.2732C9.16246 15.2802 9.1964 15.2867 9.2295 15.2931C9.40334 15.3267 9.55386 15.3559 9.6453 15.4092C9.71761 15.4512 9.68752 15.5109 9.63604 15.6131C9.6199 15.6451 9.60165 15.6813 9.5838 15.7225ZM8.65421 15.1818L8.2708 15.8409L7.68644 15.0126L8.65421 15.1818Z" fill="#006CF3"/>
<path d="M12.0422 12.6509C12.0287 12.683 11.9498 12.5981 11.9608 12.5857C12.1476 12.3261 12.1268 12.234 11.7379 11.8953L10.6454 10.9527L11.64 13.0863C11.6533 13.1126 11.6092 13.1541 11.5855 13.1478L9.32167 12.5066L10.3521 13.453C10.6804 13.7524 10.8129 13.8263 11.0857 13.5693C11.0967 13.5572 11.1899 13.6253 11.1599 13.6426C11.0638 13.7261 10.9613 13.8329 10.8446 13.964C10.6879 14.1401 10.5709 14.2715 10.4708 14.4173C10.4572 14.449 10.3818 14.3601 10.3928 14.348C10.6047 14.052 10.5553 13.9343 10.21 13.6126L9.15046 12.633C9.01072 12.5014 8.73529 12.5057 8.50258 12.7173C8.49161 12.7294 8.39865 12.6691 8.42867 12.6518C8.59151 12.51 8.78119 12.2969 9.03988 12.0059L11.2356 12.6085L10.6261 11.354C10.4938 11.082 10.385 10.8164 10.2574 10.6293C10.452 10.4353 10.7248 10.1125 10.8354 9.94681C10.849 9.91505 10.9237 9.99589 10.9165 10.0043C10.6573 10.3533 10.7127 10.4396 11.0889 10.7595L12.0298 11.5674C12.406 11.8873 12.505 11.9245 12.8108 11.6306C12.8218 11.6185 12.915 11.6866 12.885 11.7039C12.7851 11.7914 12.5732 12.0212 12.4565 12.1526C12.292 12.3374 12.1427 12.5054 12.0422 12.6509Z" fill="#006CF3"/>
<path d="M14.8658 8.62029L15.2059 9.15152C15.5191 9.64147 15.5622 9.62704 15.8942 9.45352C15.908 9.44486 15.9794 9.5358 15.9459 9.54418C15.8261 9.60134 15.5919 9.74455 15.4441 9.83896C15.2362 9.97205 15.0142 10.1141 14.8782 10.227C14.8565 10.2538 14.8083 10.1482 14.8222 10.1392C15.0988 9.91027 15.1597 9.90363 14.8317 9.39058L14.5271 8.91478L13.9101 8.63213C13.2539 8.32898 13.1234 8.30819 12.8145 8.46698C12.8006 8.47593 12.7247 8.38759 12.7585 8.37921C12.9181 8.30299 13.0983 8.18779 13.3015 8.05758C13.4494 7.96289 13.6731 7.81362 13.7704 7.73163C13.7921 7.70477 13.8449 7.80756 13.831 7.81651C13.5455 8.03189 13.6587 8.07635 14.2956 8.35929L14.6972 8.53887L14.726 7.97357C14.7618 7.28643 14.7252 7.29018 14.4226 7.43829C14.4088 7.44724 14.3282 7.36207 14.3709 7.34763C14.526 7.27459 14.6738 7.1796 14.877 7.04968C15.0249 6.95498 15.1144 6.89118 15.212 6.80947C15.2339 6.78233 15.2867 6.8854 15.2726 6.89435C14.987 7.10973 14.9452 7.22753 14.9085 7.88262L14.8658 8.62029Z" fill="#006CF3"/>
<path fill-rule="evenodd" clip-rule="evenodd" d="M17.295 5.8228C16.4615 6.16146 16.1107 7.06196 16.3936 7.75834C16.6641 8.42412 17.5078 8.7801 18.2853 8.46425C19.124 8.12356 19.4696 7.22508 19.1887 6.5339C18.9181 5.86812 18.0777 5.50463 17.295 5.8228ZM18.3107 8.26434C17.8023 8.47077 17.0932 8.25568 16.7546 7.42216C16.476 6.73588 16.7289 6.23641 17.2728 6.01554C17.7809 5.80882 18.4993 6.03229 18.8379 6.86581C19.1148 7.54688 18.8547 8.04347 18.3107 8.26434Z" fill="#006CF3"/>
<path d="M22.5793 6.23289C22.6861 6.78203 22.3616 7.32597 21.6398 7.46599C21.0151 7.58754 20.4056 7.29796 20.28 6.65182L20.0955 5.70396C19.9959 5.19236 19.9231 5.13375 19.5648 5.15887C19.5487 5.16205 19.5169 5.05667 19.5516 5.061C19.7236 5.05551 19.9812 4.99979 20.2234 4.95273C20.3958 4.91924 20.664 4.86149 20.7902 4.82021C20.8202 4.80317 20.8413 4.91087 20.8144 4.91606C20.4544 5.01942 20.4431 5.13346 20.5372 5.61822L20.7038 6.47454C20.8262 7.10452 21.2899 7.30489 21.7048 7.22434C22.2487 7.11838 22.4774 6.77221 22.3697 6.21759L22.1832 5.25906C22.0931 4.79596 22.0181 4.72667 21.6598 4.75178C21.6318 4.75178 21.6118 4.64929 21.6462 4.65391C21.8186 4.64813 21.9413 4.61869 22.1783 4.57278C22.3452 4.54044 22.5219 4.5006 22.6425 4.46018C22.6847 4.44661 22.683 4.55286 22.6723 4.55517C22.3071 4.65968 22.2978 4.78441 22.3827 5.22066L22.5793 6.23289Z" fill="#006CF3"/>
<path d="M26.4064 6.36536C26.405 6.56833 26.4076 6.94135 26.4281 7.11718C26.4281 7.13363 26.362 7.155 26.3294 7.1218L24.2988 5.02717L24.2887 6.3492C24.2855 6.78804 24.3228 6.94193 24.701 6.97773C24.712 6.97773 24.7221 7.09293 24.6892 7.08195C24.563 7.06434 24.4149 7.05799 24.2448 7.05655C24.0035 7.05482 23.8279 7.05337 23.6521 7.07416C23.6247 7.07936 23.6365 6.96964 23.6527 6.96993C24.015 6.93413 24.0707 6.81403 24.0745 6.34775L24.0852 4.93796C24.0866 4.75145 23.7428 4.49651 23.5565 4.47313C23.5401 4.47313 23.53 4.35793 23.5626 4.3689C23.7324 4.39777 24.0505 4.40557 24.2864 4.4073L26.1862 6.40232L26.1957 5.12418C26.1994 4.65242 26.1452 4.53116 25.7892 4.49016C25.7617 4.48439 25.7626 4.37496 25.7952 4.38593C25.9595 4.41481 26.0967 4.41567 26.3383 4.4174C26.5136 4.41885 26.7004 4.40932 26.821 4.39373C26.8759 4.38853 26.8479 4.49796 26.8369 4.49796C26.4526 4.5225 26.4186 4.68678 26.4151 5.12562L26.4064 6.36536Z" fill="#006CF3"/>
<path d="M29.8004 7.42807C29.408 7.54616 29.0682 7.5964 28.6643 7.51642C27.7332 7.33193 27.2868 6.59484 27.4251 5.89529C27.5712 5.1582 28.351 4.5799 29.2766 4.76324C29.6586 4.83888 30.042 5.10507 30.0995 5.18361C30.1266 5.21681 30.096 5.56875 30.0244 5.81733C30.0189 5.84418 29.919 5.81329 29.921 5.80232C29.9626 5.48069 29.6958 5.01961 29.1415 4.9099C28.5387 4.79038 28.051 5.10796 27.9072 5.83437C27.7334 6.71177 28.1659 7.23897 28.7471 7.35416C29.1669 7.43731 29.2518 7.34781 29.285 7.29296C29.3095 7.25311 29.3448 7.13128 29.3632 7.04004C29.4654 6.52324 29.4536 6.4987 29.0295 6.38119C29.0133 6.37802 29.0185 6.26715 29.0497 6.27899C29.2186 6.32923 29.5177 6.39967 29.7544 6.44673C29.9213 6.47965 30.1647 6.52238 30.2915 6.53075C30.3258 6.52642 30.2938 6.63209 30.2776 6.62862C29.9054 6.58849 29.8959 6.637 29.7943 7.14802C29.7709 7.26582 29.7582 7.35821 29.8004 7.42807Z" fill="#006CF3"/>
<path d="M34.4576 8.59191C34.2093 9.09341 33.6215 9.329 32.9626 9.00275C32.3921 8.72039 32.0829 8.12073 32.3751 7.53059L32.8033 6.66531C33.0345 6.19817 33.012 6.10752 32.7117 5.91004C32.697 5.90282 32.736 5.79975 32.7605 5.824C32.9009 5.92389 33.1393 6.03592 33.3605 6.14534C33.5178 6.22329 33.7661 6.33993 33.8914 6.38353C33.9258 6.38815 33.877 6.4866 33.8525 6.47447C33.5037 6.33849 33.4255 6.42222 33.2066 6.86482L32.8194 7.64666C32.5351 8.22206 32.7819 8.66264 33.1607 8.84973C33.6576 9.09543 34.0494 8.95886 34.3 8.45246L34.733 7.57736C34.9424 7.1544 34.9247 7.05392 34.6245 6.85644C34.6025 6.83912 34.6487 6.74587 34.6733 6.77041C34.8133 6.8703 34.9291 6.9214 35.1453 7.02852C35.2978 7.10387 35.4626 7.17923 35.583 7.22051C35.6249 7.23495 35.5591 7.31868 35.5492 7.31377C35.1953 7.17547 35.1121 7.26902 34.9152 7.66744L34.4576 8.59191Z" fill="#006CF3"/>
<path d="M37.4204 11.0202C37.2956 11.1805 37.0713 11.4787 36.9812 11.6308C36.9711 11.6438 36.9056 11.6207 36.8998 11.5745L36.5583 8.67729L35.7475 9.72186C35.4782 10.0686 35.4147 10.2135 35.6933 10.4714C35.7016 10.478 35.6399 10.5759 35.6205 10.547C35.531 10.4566 35.4173 10.3614 35.283 10.2571C35.0925 10.109 34.9536 10.0016 34.8014 9.91126C34.7763 9.89885 34.8525 9.81887 34.8655 9.82898C35.175 10.0207 35.2925 9.9589 35.5784 9.5905L36.4428 8.47664C36.5571 8.32939 36.439 7.91797 36.3051 7.78632C36.2921 7.77621 36.3538 7.67834 36.3732 7.70721C36.4907 7.83338 36.7387 8.03259 36.9249 8.17724L37.2229 10.9157L38.0067 9.90577C38.296 9.53304 38.3266 9.40399 38.0685 9.15512C38.0503 9.13404 38.1176 9.04714 38.1367 9.0763C38.2501 9.199 38.3584 9.28302 38.5492 9.43113C38.6875 9.53882 38.842 9.64449 38.9474 9.70541C38.9939 9.73486 38.9052 9.80472 38.8963 9.7978C38.5764 9.58386 38.4491 9.69386 38.1803 10.0406L37.4204 11.0202Z" fill="#006CF3"/>
<path d="M38.1533 12.782C37.9847 12.6015 37.8048 12.4092 37.6688 12.2961C37.6307 12.2715 37.7338 12.2129 37.7413 12.2207C38.0167 12.4589 38.1062 12.4502 38.4827 12.098L39.3884 11.2512C39.7689 10.8952 39.7837 10.8063 39.5642 10.5159C39.557 10.5081 39.622 10.4168 39.648 10.4526C39.7441 10.5955 39.924 10.7881 40.0926 10.9683C40.2049 11.0884 40.4079 11.2893 40.506 11.3702C40.5401 11.3985 40.4448 11.4574 40.4376 11.4493C40.159 11.1914 40.0484 11.2423 39.6919 11.5757L38.7864 12.4225C38.4299 12.756 38.3799 12.8553 38.6144 13.1541C38.6216 13.1622 38.5566 13.2532 38.5306 13.2174C38.4564 13.1143 38.2656 12.9024 38.1533 12.782Z" fill="#006CF3"/>
<path d="M39.7628 14.8688C39.746 14.8737 39.6996 14.8261 39.7172 14.7935L40.8515 12.9471C41.1082 12.5279 41.1665 12.3336 41.0011 12.0478C40.9916 12.0342 41.0767 11.9548 41.0866 11.988C41.1483 12.1055 41.2803 12.3143 41.3776 12.454C41.5156 12.6521 41.6879 12.8995 41.8046 13.019C41.8326 13.0398 41.7422 13.1025 41.7223 13.0831C41.6008 12.9471 41.5323 12.8677 41.4422 12.9304C41.379 12.9743 41.2745 13.0739 41.1241 13.319L40.3538 14.5839L41.8043 14.2957C42.1317 14.2285 42.2042 14.1979 42.2853 14.1416C42.3618 14.0881 42.3387 13.9972 42.2486 13.8396C42.2394 13.826 42.3246 13.7466 42.3341 13.7798C42.3927 13.8927 42.481 14.0385 42.5812 14.1828C42.7221 14.3855 42.7441 14.417 42.8639 14.5408C42.8919 14.5616 42.7911 14.6185 42.7816 14.6049C42.6118 14.4089 42.4236 14.3595 41.9051 14.46L39.7628 14.8688Z" fill="#006CF3"/>
<path d="M41.5586 18.0513C41.4922 17.913 41.4001 17.6711 41.267 17.3942C41.0866 17.0183 40.8703 16.5685 40.7176 16.3008C40.7032 16.2711 40.8045 16.2408 40.8114 16.2558C41.0363 16.6103 41.1027 16.621 41.5725 16.3952L42.6901 15.8585C43.1598 15.6327 43.2023 15.5698 43.0614 15.1748C43.0545 15.1598 43.1512 15.0952 43.1604 15.1272C43.2687 15.4159 43.4728 15.8536 43.6532 16.2292C43.7814 16.4963 43.9151 16.7486 44.0442 16.9666C43.9535 16.9799 43.8493 17.0298 43.7751 17.0654C43.7355 17.0844 43.6247 17.1318 43.6019 17.1485C43.592 17.1534 43.5421 17.0616 43.5519 17.057C43.7009 16.949 43.7514 16.8517 43.521 16.3719L43.3668 16.0505C43.2756 16.0759 43.1347 16.1377 42.9023 16.2492L42.4476 16.4677L42.5662 16.7149C42.7657 17.13 42.7897 17.1551 42.9673 17.1188C42.9771 17.1139 43.0273 17.2057 43.0002 17.2126C42.9384 17.2239 42.7828 17.2926 42.6988 17.333C42.6543 17.3544 42.5209 17.4184 42.4863 17.4352C42.486 17.4473 42.4314 17.346 42.436 17.3437C42.6121 17.2163 42.6127 17.1797 42.4227 16.7841L42.3041 16.537L41.8147 16.772C41.3398 17.0001 41.3071 17.0463 41.388 17.2143L41.4804 17.4072C41.7535 17.976 41.8398 17.9529 42.1083 17.8908C42.1135 17.8885 42.1609 17.9872 42.1462 17.9944C42.0448 18.0248 41.7835 18.1015 41.6975 18.1125C41.6164 18.1333 41.5895 18.1157 41.5586 18.0513Z" fill="#006CF3"/>
<path fill-rule="evenodd" clip-rule="evenodd" d="M43.2327 19.2147C43.2416 19.2637 43.2494 19.29 43.2728 19.3688C43.2959 19.4477 43.3476 19.564 43.3915 19.6541C42.8221 20.0112 42.3564 20.681 42.6117 21.5437C42.6212 21.5752 42.7165 21.5302 42.7116 21.5143C42.5762 21.0567 43.1544 20.3421 43.6288 19.9731C43.852 20.2445 44.1658 20.358 44.4288 20.28C44.8498 20.1553 44.9641 19.7098 44.7539 18.9996C44.6263 18.5679 44.4667 18.106 44.3645 17.9533C44.3497 17.9232 44.2573 17.9793 44.2741 17.9972C44.3018 18.0517 44.3211 18.0976 44.3336 18.1398C44.3881 18.3237 44.3131 18.4374 43.8552 18.5729L42.6665 18.9245C42.1668 19.0723 42.085 19.0279 41.947 18.6967C41.9421 18.6811 41.8272 18.6979 41.8469 18.7264C41.9176 18.8884 41.9941 19.1462 42.0622 19.3778C42.1122 19.5461 42.1864 19.8161 42.2063 19.9416C42.2054 19.9763 42.3126 19.9333 42.3079 19.9174C42.2334 19.5502 42.3175 19.4855 42.791 19.3455L43.2327 19.2147ZM44.0163 18.9829C44.3007 18.8989 44.4563 18.864 44.536 18.8634C44.5433 18.8816 44.5493 18.8955 44.5546 18.9078C44.5657 18.9335 44.574 18.9526 44.5857 18.9919C44.7208 19.4495 44.6377 19.7486 44.1959 19.8794C43.8382 19.9853 43.5775 19.8392 43.4233 19.3184C43.4124 19.2815 43.4062 19.2548 43.4006 19.2307C43.3958 19.21 43.3914 19.1912 43.3849 19.1694L44.0163 18.9829Z" fill="#006CF3"/>
<path d="M42.8864 21.6846C42.8997 21.6606 43.206 21.6346 43.4964 21.611C43.5236 21.6072 43.5265 21.7065 43.5152 21.708C43.107 21.798 42.8113 22.0608 42.8702 22.4846C42.9112 22.7779 43.113 22.9549 43.3737 22.9185C44.0531 22.8241 43.8865 21.6286 44.6308 21.5252C45.0058 21.4729 45.4383 21.7562 45.5079 22.2559C45.5411 22.495 45.4915 22.657 45.4297 22.8097C45.4123 22.8455 45.1955 22.9197 44.9186 22.9584C44.9022 22.9607 44.8872 22.8521 44.9033 22.8498C45.1955 22.7595 45.3748 22.5348 45.3338 22.2415C45.2983 21.986 45.147 21.8133 44.8967 21.848C44.2445 21.9386 44.4244 23.1102 43.6417 23.2191C43.1962 23.2809 42.7619 22.987 42.6901 22.4707C42.6496 22.1719 42.7368 21.9216 42.8864 21.6846Z" fill="#006CF3"/>
<path d="M42.9464 24.7201C42.9421 24.4733 42.938 24.2099 42.9129 24.0347C42.9014 23.9911 43.0169 24.0165 43.0171 24.0275C43.0613 24.3889 43.1338 24.4427 43.6491 24.4337L44.8889 24.4126C45.41 24.404 45.4805 24.3477 45.5125 23.985C45.5125 23.9741 45.6219 23.9504 45.617 23.9943C45.5925 24.1646 45.5971 24.4279 45.6009 24.6748C45.6037 24.8393 45.6193 25.1243 45.6381 25.2502C45.6442 25.2941 45.5345 25.2741 45.5342 25.2632C45.5004 24.885 45.3843 24.8486 44.8964 24.857L43.6567 24.878C43.1687 24.8861 43.0648 24.9262 43.0382 25.3056C43.0385 25.3163 42.9291 25.3403 42.934 25.2964C42.9487 25.1699 42.9493 24.8847 42.9464 24.7201Z" fill="#006CF3"/>
<path d="M44.768 28.8129C44.7516 28.8109 44.7692 28.7136 44.7801 28.7147C44.9646 28.6988 45.1072 28.573 45.1612 28.1376L45.2057 27.7781L43.4798 27.5639C42.9953 27.5038 42.8876 27.5238 42.8079 27.9008C42.8059 27.9173 42.6956 27.9144 42.7063 27.8714C42.7381 27.7481 42.7782 27.4712 42.7995 27.2971C42.8287 27.063 42.8619 26.7965 42.861 26.625C42.8556 26.58 42.967 26.616 42.965 26.6322C42.9586 26.9963 43.0224 27.0592 43.5343 27.1227L45.2603 27.337L45.3076 26.9559C45.3599 26.5369 45.2603 26.3588 45.0764 26.2806C45.0735 26.258 45.0836 26.1763 45.0995 26.1838C45.1843 26.211 45.3899 26.2476 45.5042 26.2618C45.5475 26.2673 45.6295 26.2774 45.7193 26.2664C45.7364 26.2629 45.7294 26.3617 45.7127 26.3651C45.5779 26.3819 45.5712 26.392 45.4982 26.9798L45.3515 28.1612C45.2793 28.7442 45.2759 28.771 45.4078 28.8207C45.4237 28.8279 45.4052 28.931 45.3847 28.9174C45.3004 28.8848 45.1604 28.8562 45.0241 28.8391C44.9591 28.8308 44.8229 28.8143 44.768 28.8129Z" fill="#006CF3"/>
<path d="M43.3836 30.8354L42.7799 30.6515C42.2235 30.482 42.2004 30.521 42.0604 30.8681C42.0555 30.8839 41.942 30.8608 41.9622 30.8325C42.0162 30.7113 42.1011 30.4506 42.1525 30.2828C42.2244 30.0467 42.3012 29.7949 42.3312 29.6202C42.3304 29.5856 42.4355 29.635 42.4308 29.6505C42.369 30.0045 42.3269 30.049 42.9092 30.2262L43.45 30.3908L44.1028 30.2052C44.7989 30.01 44.9115 29.941 45.0437 29.6199C45.0486 29.6043 45.1635 29.6222 45.1436 29.6503C45.0714 29.8119 45.0091 30.0166 44.9389 30.2473C44.8875 30.4153 44.8145 30.674 44.7937 30.7996C44.7945 30.8343 44.6874 30.7901 44.692 30.7745C44.77 30.4252 44.6545 30.4647 43.9864 30.6628L43.5646 30.7866L43.9093 31.2359C44.328 31.7821 44.3534 31.7553 44.4876 31.4463C44.4925 31.4305 44.6092 31.4432 44.5858 31.4819C44.5154 31.6383 44.4643 31.8061 44.3938 32.0371C44.3427 32.2051 44.3159 32.3116 44.2951 32.4372C44.2959 32.4719 44.1888 32.428 44.1934 32.4121C44.2714 32.063 44.2263 31.9461 43.8291 31.4238L43.3836 30.8354Z" fill="#006CF3"/>
<path d="M41.1364 34.3482L42.0478 34.1077L42.2883 35.0191L41.3769 35.2596L41.1364 34.3482Z" fill="#006CF3"/>
<path d="M10.5647 38.1339C10.5535 38.1217 10.6265 38.0553 10.6378 38.0675C10.645 38.0755 10.6562 38.0877 10.671 38.1041C10.9259 38.3839 11.247 38.4104 11.5715 38.1148C11.8795 37.8339 11.8778 37.5388 11.6229 37.2591C11.5972 37.2305 11.5261 37.169 11.4851 37.1323C11.3775 37.1932 11.2882 37.2746 11.061 37.4814L10.1446 38.3166C9.7797 38.6489 9.72889 38.7402 9.95582 39.0378C9.96708 39.05 9.88913 39.1357 9.87527 39.1039C9.80251 38.9997 9.61802 38.789 9.49994 38.6593C9.33739 38.4809 9.15983 38.2863 9.02558 38.1714C8.98776 38.1463 9.0917 38.0891 9.10267 38.1012C9.37492 38.3432 9.46067 38.3391 9.84582 37.9881L10.7622 37.1531C11.1433 36.8058 11.1592 36.7171 10.9478 36.42C10.9369 36.4076 10.9995 36.3135 11.0209 36.3536C11.1231 36.498 11.2559 36.6441 11.4147 36.8182C11.4811 36.8912 11.6855 37.091 11.7854 37.2004C12.1584 37.6101 12.2517 38.1113 11.9315 38.4032C11.5746 38.7283 11.0347 38.6492 10.6023 38.1746C10.5869 38.1581 10.5722 38.1422 10.5647 38.1339Z" fill="#006CF3"/>
<path fill-rule="evenodd" clip-rule="evenodd" d="M12.7588 40.1772L12.7649 40.1821C12.8296 40.2332 12.9387 40.2981 13.0262 40.3466C12.7666 40.9665 12.7718 41.7821 13.4774 42.3402C13.5031 42.3607 13.5548 42.2689 13.5421 42.2585C13.1676 41.9626 13.2288 41.0456 13.4038 40.4705C13.7425 40.5637 14.0641 40.4754 14.2344 40.2603C14.5067 39.9164 14.3433 39.4863 13.7624 39.0269C13.4099 38.7477 13.0132 38.4619 12.8417 38.3961C12.8122 38.3799 12.7692 38.4786 12.7932 38.4836C12.8475 38.5124 12.8896 38.5387 12.924 38.5661C13.0744 38.6851 13.0787 38.8214 12.7825 39.1958L12.0134 40.1679C11.69 40.5767 11.5976 40.5874 11.2942 40.3963C11.2812 40.3862 11.1969 40.4662 11.2295 40.478C11.3801 40.5691 11.5896 40.7349 11.7783 40.8842L11.7809 40.8862C11.9187 40.9951 12.1346 41.1732 12.2233 41.2645C12.2423 41.2936 12.3052 41.1963 12.2923 41.1862C12.0203 40.9287 12.0515 40.8276 12.3578 40.4405L12.6436 40.079C12.6777 40.1128 12.6988 40.1296 12.7588 40.1772ZM13.1509 39.438C13.3348 39.2056 13.4419 39.0875 13.5069 39.041C13.5237 39.052 13.5366 39.06 13.5482 39.0671C13.5718 39.0816 13.5896 39.0926 13.6215 39.1175C13.9957 39.4138 14.0999 39.7062 13.8141 40.0677C13.5825 40.3602 13.2855 40.3908 12.8596 40.0538C12.8297 40.0301 12.8094 40.012 12.791 39.9956C12.775 39.9813 12.7604 39.9684 12.7424 39.9542L13.1509 39.438Z" fill="#006CF3"/>
<path fill-rule="evenodd" clip-rule="evenodd" d="M16.8468 40.9687C16.047 40.5561 15.1353 40.876 14.7908 41.5438C14.4614 42.1824 14.74 43.0543 15.4861 43.4395C16.2904 43.8541 17.1973 43.5319 17.5394 42.869C17.8688 42.2301 17.5977 41.3558 16.8468 40.9687ZM15.6543 43.328C15.1666 43.0766 14.8684 42.3984 15.281 41.5986C15.6205 40.9407 16.1644 40.8076 16.6861 41.0764C17.1735 41.3278 17.4717 42.0184 17.0592 42.8182C16.7222 43.4715 16.176 43.5971 15.6543 43.328Z" fill="#006CF3"/>
<path d="M19.2577 44.91C19.2479 44.9245 19.1815 44.9161 19.1752 44.88L18.9046 42.7305C18.8423 42.2432 18.7663 42.0549 18.4583 41.9357C18.4424 41.9308 18.4592 41.8159 18.4877 41.8355C18.6093 41.8886 18.8429 41.9689 19.0063 42.0168C19.2378 42.085 19.5271 42.1701 19.6928 42.1906C19.7275 42.1892 19.6966 42.2946 19.6686 42.2923C19.4887 42.2622 19.3856 42.2432 19.3547 42.3483C19.3331 42.4222 19.3137 42.5651 19.3498 42.8501L19.5407 44.3187L20.4917 43.1864C20.7048 42.9286 20.7423 42.8599 20.77 42.7652C20.7963 42.6754 20.7215 42.6191 20.5526 42.5524C20.5367 42.5478 20.5535 42.4326 20.5821 42.4522C20.6984 42.5039 20.8587 42.5625 21.027 42.6119C21.2637 42.6817 21.3007 42.6924 21.4716 42.7141C21.5062 42.7129 21.4632 42.8203 21.4474 42.8157C21.1924 42.7692 21.0146 42.8483 20.673 43.2511L19.2577 44.91Z" fill="#006CF3"/>
<path fill-rule="evenodd" clip-rule="evenodd" d="M23.3282 42.8567C22.4326 42.7707 21.7047 43.4061 21.6328 44.1542C21.5641 44.8693 22.1464 45.5758 22.982 45.6564C23.8828 45.7427 24.6054 45.1069 24.6767 44.3644C24.7455 43.6489 24.1692 42.9375 23.3282 42.8567ZM23.0972 45.4907C22.5512 45.4381 22.0226 44.919 22.1086 44.0234C22.1794 43.286 22.6349 42.9607 23.2193 43.017C23.7653 43.0695 24.2985 43.6002 24.2125 44.4958C24.142 45.2274 23.6815 45.5467 23.0972 45.4907Z" fill="#006CF3"/>
<path d="M25.0865 46.1975C25.4376 46.1914 25.5227 46.0361 25.5201 45.8992C25.5184 45.806 25.4572 45.752 25.3244 45.6888C25.2193 45.6414 25.1691 45.5984 25.1673 45.5049C25.1656 45.4009 25.2519 45.3224 25.3671 45.3204C25.5424 45.3169 25.7318 45.4618 25.7364 45.7306C25.7422 46.0488 25.4719 46.2951 25.0934 46.302C25.0608 46.3023 25.0755 46.1978 25.0865 46.1975Z" fill="#006CF3"/>
<path d="M30.8387 43.8953C30.97 44.4392 30.6701 44.9967 29.9555 45.1696C29.3368 45.3192 28.7149 45.057 28.5604 44.4175L28.3338 43.4789C28.2114 42.9722 28.136 42.9174 27.7792 42.9581C27.763 42.9621 27.7266 42.8579 27.761 42.8611C27.9331 42.8475 28.1877 42.7805 28.4276 42.7228C28.5983 42.6812 28.8636 42.6116 28.9874 42.5649C29.0172 42.5467 29.0426 42.6532 29.016 42.6596C28.6612 42.7791 28.6551 42.8934 28.7709 43.3735L28.9756 44.2215C29.1263 44.8451 29.5987 45.0247 30.0092 44.9254C30.5477 44.7952 30.761 44.4389 30.6282 43.8898L30.399 42.9408C30.2881 42.482 30.2104 42.4165 29.8533 42.4572C29.8253 42.4583 29.8008 42.357 29.8351 42.3599C30.0072 42.3466 30.1284 42.3117 30.3629 42.2551C30.528 42.2152 30.703 42.1673 30.8216 42.1217C30.8632 42.1061 30.8661 42.2123 30.8554 42.2149C30.4954 42.3359 30.4916 42.4612 30.5962 42.8931L30.8387 43.8953Z" fill="#006CF3"/>
<path d="M33.9894 41.2874C33.996 41.3024 33.9042 41.3388 33.8996 41.3287C33.789 41.1803 33.6065 41.1254 33.2078 41.3087L32.8787 41.4597L33.6054 43.0399C33.8092 43.4833 33.8828 43.5642 34.2454 43.4337C34.2605 43.427 34.3162 43.522 34.2743 43.5356C34.1528 43.5734 33.8961 43.6851 33.7367 43.7585C33.5225 43.8569 33.2783 43.969 33.1327 44.0602C33.0975 44.0888 33.0692 43.9747 33.0842 43.9678C33.3972 43.7816 33.4171 43.6941 33.2017 43.2255L32.475 41.6457L32.1263 41.8062C31.7426 41.9826 31.6433 42.161 31.6739 42.3582C31.6563 42.3726 31.5815 42.407 31.5797 42.3894C31.5581 42.3028 31.4807 42.1088 31.4325 42.0042C31.4143 41.9644 31.3797 41.8896 31.3234 41.8189C31.3115 41.8062 31.399 41.76 31.4108 41.7727C31.4957 41.8787 31.5079 41.8789 32.0463 41.6315L33.1275 41.1341C33.6611 40.8887 33.6859 40.8774 33.6585 40.7391C33.6565 40.7218 33.7535 40.6834 33.7529 40.7079C33.7696 40.7968 33.819 40.9308 33.8765 41.0555C33.9042 41.115 33.9614 41.2397 33.9894 41.2874Z" fill="#006CF3"/>
<path fill-rule="evenodd" clip-rule="evenodd" d="M36.771 41.9228C36.7574 41.9318 36.8085 42.0369 36.8293 42.0092C36.9627 41.8928 37.2078 41.7268 37.4036 41.5949C37.5534 41.4935 37.752 41.3659 37.8701 41.3059C37.9036 41.2963 37.83 41.2071 37.8161 41.2164C37.4754 41.4076 37.2986 41.2885 36.955 41.0572C36.9501 41.0539 36.9452 41.0505 36.9402 41.0472L35.1704 39.8401C35.1426 39.8187 35.1005 39.8539 35.1065 39.8831L35.468 42.0424C35.5535 42.5407 35.5183 42.7434 35.3034 42.9152C35.2896 42.9244 35.3375 43.0246 35.3618 43.0015C35.4989 42.8825 35.531 42.8608 35.7241 42.7301L35.7267 42.7284C35.8722 42.6302 36.016 42.5392 36.1298 42.4821C36.1632 42.4726 36.0986 42.3773 36.0761 42.3926C36.0617 42.4005 36.0479 42.4081 36.0346 42.4155C35.9053 42.4872 35.8301 42.5289 35.7827 42.4587C35.7212 42.368 35.682 42.2023 35.6329 41.9439L35.5746 41.6324L36.3108 41.1344L36.5556 41.32C36.5831 41.3408 36.6103 41.361 36.6368 41.3808C36.7795 41.4871 36.903 41.5792 36.9627 41.6673C37.0095 41.7366 36.9564 41.7774 36.8654 41.8472C36.837 41.869 36.8049 41.8936 36.771 41.9228ZM36.1687 41.0325L35.537 41.4595L35.3707 40.4597L36.1687 41.0325Z" fill="#006CF3"/>
<path d="M39.9728 39.3284C39.9572 39.3518 39.8874 39.2666 39.8989 39.2548C40.0961 39.0022 40.0843 38.9052 39.7222 38.5457L39.3252 38.1513L38.289 39.1939L38.686 39.5883C39.0284 39.9286 39.141 39.9789 39.3922 39.7644C39.4041 39.7528 39.4936 39.8262 39.4624 39.842C39.3579 39.9237 39.1838 40.0909 39.0599 40.2156C38.8939 40.3828 38.6771 40.6008 38.5691 40.7408C38.5535 40.7717 38.4833 40.6787 38.4952 40.6672C38.7539 40.3366 38.742 40.2708 38.3725 39.9032L37.4931 39.0296C37.1235 38.6623 37.0496 38.643 36.7245 38.9078C36.713 38.9193 36.6234 38.846 36.6546 38.8304C36.7938 38.7288 37.0103 38.5111 37.1769 38.3436C37.3008 38.2189 37.4627 38.0402 37.5439 37.9351C37.5595 37.9042 37.6334 37.9931 37.6218 38.0047C37.4093 38.2576 37.4599 38.3699 37.8066 38.714L38.1762 39.0813L39.2124 38.0384L38.8428 37.6712C38.477 37.3077 38.3762 37.2924 38.1285 37.4951C38.117 37.5069 38.0272 37.4333 38.0506 37.4177C38.1897 37.3164 38.3598 37.1529 38.5261 36.9858C38.6537 36.8573 38.8702 36.6237 38.9476 36.5227C38.9629 36.4915 39.0446 36.5726 39.0253 36.592C38.7472 36.9188 38.8056 37.0077 39.1558 37.3559L40.0352 38.2299C40.3854 38.5778 40.4668 38.628 40.796 38.3517C40.815 38.3323 40.897 38.4135 40.8658 38.4291C40.7651 38.507 40.537 38.7288 40.4097 38.8569C40.2436 39.025 40.0811 39.1887 39.9728 39.3284Z" fill="#006CF3"/>
<path d="M15.9531 31.9658H34.3059" stroke="white" stroke-width="0.80358" stroke-linecap="round" stroke-linejoin="round"/>
<path d="M15.9531 18.9731H34.3059" stroke="white" stroke-width="0.80358" stroke-linecap="round" stroke-linejoin="round"/>
<path d="M18.6575 15.5137H18.4011C18.3907 15.5726 18.3872 15.6696 18.3872 15.8324V16.1615H18.5397C18.8238 16.1615 18.8515 16.1234 18.8827 16.0022C18.8861 15.9952 18.952 15.9952 18.9485 16.0091C18.9346 16.0541 18.9312 16.1719 18.9312 16.2447C18.9312 16.2793 18.9277 16.3867 18.9346 16.411C18.9416 16.4318 18.8723 16.4387 18.8688 16.4179C18.848 16.314 18.8203 16.2655 18.5397 16.2655H18.3872V16.6293C18.3872 16.9584 18.4115 17.0034 18.6575 17.0242C18.6748 17.0242 18.6817 17.0935 18.654 17.09C18.5743 17.0796 18.3838 17.0762 18.2729 17.0762C18.1239 17.0762 17.9784 17.0762 17.8675 17.09C17.8468 17.097 17.8572 17.0242 17.8675 17.0242C18.0685 17 18.1066 16.9515 18.1066 16.6293V15.8463C18.1066 15.5171 18.0789 15.4755 17.8156 15.4478C17.8086 15.4478 17.7983 15.3751 17.819 15.3785C18.0131 15.3959 18.3283 15.3993 18.5916 15.3993C18.7787 15.3993 18.9485 15.3889 19.0455 15.3889C19.0905 15.3889 19.1113 15.3959 19.1183 15.4444C19.1287 15.5033 19.1321 15.6626 19.1425 15.7319C19.1425 15.7423 19.0836 15.7458 19.0801 15.7354C19.0452 15.5656 19.0521 15.5137 18.6575 15.5137Z" fill="white"/>
<path fill-rule="evenodd" clip-rule="evenodd" d="M20.4449 15.3474C19.8767 15.3474 19.4575 15.7909 19.4575 16.2655C19.4575 16.7194 19.8663 17.1282 20.3964 17.1282C20.9681 17.1282 21.3838 16.6847 21.3838 16.2136C21.3838 15.7597 20.9785 15.3474 20.4449 15.3474ZM20.4585 17.0172C20.1121 17.0172 19.7483 16.7227 19.7483 16.1546C19.7483 15.6868 20.0151 15.4547 20.3858 15.4547C20.7322 15.4547 21.0995 15.7561 21.0995 16.3243C21.0995 16.7886 20.8292 17.0172 20.4585 17.0172Z" fill="white"/>
<path d="M23.3869 16.4769C23.3869 16.8302 23.1201 17.1282 22.6559 17.1282C22.254 17.1282 21.911 16.8753 21.911 16.4595V15.8498C21.911 15.5206 21.8729 15.4756 21.6477 15.4479C21.6373 15.4479 21.6304 15.3786 21.6512 15.3855C21.7586 15.4028 21.9249 15.3994 22.0808 15.3994C22.1916 15.3994 22.3649 15.3959 22.448 15.3855C22.4688 15.3786 22.4688 15.4479 22.4515 15.4479C22.2159 15.4687 22.1951 15.538 22.1951 15.8498V16.4006C22.1951 16.806 22.4584 16.9862 22.7252 16.9862C23.0751 16.9862 23.2587 16.7991 23.2587 16.4422V15.8255C23.2587 15.5276 23.2206 15.4756 22.9954 15.4479C22.9781 15.4444 22.9781 15.3786 22.9989 15.3855C23.1063 15.4028 23.186 15.3994 23.3384 15.3994C23.4458 15.3994 23.5601 15.3959 23.6398 15.3855C23.6675 15.3821 23.6537 15.4479 23.6468 15.4479C23.4077 15.4687 23.3869 15.5449 23.3869 15.8255V16.4769V16.4769Z" fill="white"/>
<path d="M25.7257 16.6291C25.7257 16.7573 25.7292 16.9929 25.7431 17.1037C25.7431 17.1141 25.7015 17.128 25.6807 17.1072L24.3884 15.7941V16.6291C24.3884 16.9062 24.4127 17.0033 24.6517 17.024C24.6586 17.024 24.6656 17.0968 24.6448 17.0899C24.5651 17.0795 24.4716 17.076 24.3642 17.076C24.2117 17.076 24.1008 17.076 23.99 17.0899C23.9727 17.0933 23.9796 17.024 23.99 17.024C24.2186 16.9998 24.2533 16.9236 24.2533 16.6291V15.7387C24.2533 15.6209 24.035 15.4615 23.9172 15.4477C23.9068 15.4477 23.8999 15.3749 23.9207 15.3818C24.0281 15.3992 24.229 15.4026 24.378 15.4026L25.5871 16.6533V15.8461C25.5871 15.5481 25.5525 15.4719 25.3273 15.4477C25.3097 15.4442 25.3097 15.3749 25.3308 15.3818C25.4347 15.3992 25.5213 15.3992 25.6738 15.3992C25.7846 15.3992 25.9024 15.3922 25.9786 15.3818C26.0133 15.3784 25.9963 15.4477 25.989 15.4477C25.7465 15.465 25.7257 15.5689 25.7257 15.8461V16.6291V16.6291Z" fill="white"/>
<path fill-rule="evenodd" clip-rule="evenodd" d="M26.325 17.0899C26.4324 17.076 26.6402 17.076 26.7927 17.076C26.821 17.076 26.885 17.0781 26.9549 17.0805C27.0388 17.0833 27.1313 17.0864 27.1804 17.0864C27.7659 17.0864 28.1782 16.688 28.1782 16.2133C28.1782 15.7491 27.8387 15.3887 27.2151 15.3887C27.1636 15.3887 27.0669 15.3919 26.9801 15.3947C26.9091 15.397 26.8447 15.3991 26.8167 15.3991C26.6607 15.3991 26.4321 15.3991 26.3281 15.3818C26.2935 15.3749 26.3108 15.4476 26.3212 15.4476C26.5499 15.4719 26.5845 15.5169 26.5845 15.8461V16.6291C26.5845 16.9547 26.5499 16.9998 26.3212 17.024C26.3108 17.024 26.2903 17.0933 26.325 17.0899ZM26.8654 15.8458C26.8654 15.6483 26.8686 15.5929 26.8859 15.5098C26.8875 15.5095 26.8891 15.5092 26.8907 15.509C26.9306 15.5023 26.9691 15.4959 27.1356 15.4959C27.6172 15.4959 27.8944 15.7731 27.8944 16.317C27.8944 16.7639 27.5615 16.9753 27.2534 16.9753C26.8827 16.9753 26.8654 16.9129 26.8654 16.7224V15.8458Z" fill="white"/>
<path d="M29.6469 17.09C29.5499 17.09 29.3874 17.0762 29.1934 17.0762C28.9301 17.0762 28.6148 17.0762 28.4205 17.09C28.4 17.09 28.4104 17.0242 28.4205 17.0242C28.6838 16.993 28.708 16.9584 28.708 16.6293V15.8463C28.708 15.5171 28.6838 15.4755 28.4205 15.4478C28.4104 15.4478 28.4 15.3751 28.4205 15.3785C28.6148 15.3959 28.9197 15.3993 29.183 15.3993C29.3698 15.3993 29.5499 15.3924 29.7096 15.3785C29.692 15.434 29.692 15.5067 29.692 15.5587C29.692 15.5864 29.6885 15.6626 29.692 15.68C29.692 15.6869 29.6262 15.6903 29.6262 15.6834C29.6054 15.5691 29.5635 15.5137 29.2277 15.5137H29.0025C28.9921 15.5726 28.9887 15.6696 28.9887 15.8324V16.1511H29.1619C29.4529 16.1511 29.4737 16.1442 29.5014 16.0333C29.5014 16.0264 29.5675 16.0229 29.5638 16.0403C29.5537 16.0784 29.5499 16.1858 29.5499 16.2447C29.5499 16.2759 29.5499 16.3694 29.5499 16.3937C29.5569 16.3971 29.4841 16.4006 29.4841 16.3971C29.4599 16.262 29.4391 16.2516 29.1619 16.2516H28.9887V16.5946C28.9887 16.9272 29.006 16.9584 29.1238 16.9584H29.2589C29.6573 16.9584 29.6677 16.903 29.7058 16.7332C29.7058 16.7297 29.7751 16.7297 29.7751 16.7401C29.7647 16.8059 29.737 16.9757 29.7197 17.0277C29.7093 17.0796 29.692 17.09 29.6469 17.09Z" fill="white"/>
<path fill-rule="evenodd" clip-rule="evenodd" d="M30.1394 17.0899C30.2468 17.076 30.4547 17.076 30.6072 17.076C30.6355 17.076 30.6996 17.0781 30.7696 17.0805C30.8536 17.0833 30.9459 17.0864 30.9949 17.0864C31.5804 17.0864 31.9927 16.688 31.9927 16.2133C31.9927 15.7491 31.6532 15.3887 31.0295 15.3887C30.978 15.3887 30.8814 15.3919 30.7945 15.3947C30.7236 15.397 30.6591 15.3991 30.6311 15.3991C30.4752 15.3991 30.2466 15.3991 30.1426 15.3818C30.1083 15.3749 30.1256 15.4476 30.136 15.4476C30.3646 15.4719 30.3993 15.5169 30.3993 15.8461V16.6291C30.3993 16.9547 30.3646 16.9998 30.136 17.024C30.1256 17.024 30.1048 17.0933 30.1394 17.0899ZM30.68 15.8458C30.68 15.6483 30.6832 15.5929 30.7008 15.5098C30.7023 15.5095 30.7039 15.5092 30.7054 15.509C30.7451 15.5023 30.7834 15.4959 30.9505 15.4959C31.4321 15.4959 31.7093 15.7731 31.7093 16.317C31.7093 16.7639 31.3764 16.9753 31.068 16.9753C30.6976 16.9753 30.68 16.9129 30.68 16.7224V15.8458Z" fill="white"/>
<path fill-rule="evenodd" clip-rule="evenodd" d="M13.5561 28.3787L13.557 22.6344C13.557 22.6202 13.5571 22.6066 13.5571 22.5938C13.5579 22.4381 13.5582 22.3764 13.4363 22.3006C13.3231 22.2307 13.2078 22.2117 13.0382 22.1839C13.0139 22.18 12.9886 22.1758 12.9619 22.1713L12.9579 22.1704C12.9365 22.1652 12.9412 22.085 12.9625 22.085H17.437C19.3039 22.085 20.1593 22.514 20.1593 23.7803C20.1593 24.7143 19.6749 25.0957 19.148 25.2602C19.1332 25.2643 19.1341 25.2828 19.148 25.2868C19.9751 25.4927 20.3929 26.0415 20.3929 26.9383C20.3929 28.1514 19.5683 28.9292 17.6082 28.9292H12.9608C12.9391 28.9292 12.9357 28.8493 12.9568 28.8438C12.9585 28.8432 12.9608 28.8429 12.9608 28.8429C12.9873 28.8384 13.0126 28.8343 13.0368 28.8303C13.2068 28.8025 13.3222 28.7836 13.4352 28.7136C13.5573 28.638 13.557 28.5752 13.5562 28.4184C13.5562 28.4058 13.5561 28.3926 13.5561 28.3787ZM15.7375 24.7191V23.5264C15.7375 23.4343 15.7242 23.3627 15.7242 23.3627C15.7242 23.3627 15.8074 23.376 15.8882 23.376H16.7876C17.4721 23.376 17.874 23.4819 17.874 24.1041C17.874 24.5083 17.6248 24.8689 16.8156 24.8689H15.8882C15.8074 24.8689 15.7271 24.8793 15.7271 24.8793C15.7271 24.8793 15.7375 24.8016 15.7375 24.7191ZM15.7376 27.4577V26.0776C15.7376 25.9849 15.7266 25.9159 15.7266 25.9159C15.7266 25.9159 15.8071 25.9272 15.888 25.9272H16.6488C17.2556 25.9272 17.9979 25.9272 17.9979 26.7674C17.9979 27.3893 17.4664 27.6069 16.751 27.6069H15.8883C15.8069 27.6069 15.7289 27.6194 15.7289 27.6194C15.7289 27.6194 15.7376 27.5365 15.7376 27.4577Z" fill="white"/>
<path d="M36.9735 22.6351C36.9735 22.4486 36.9625 22.3831 37.0944 22.3014C37.2235 22.2214 37.356 22.2081 37.5688 22.172C37.5688 22.172 37.5711 22.1717 37.5729 22.1712C37.5939 22.1657 37.5905 22.0857 37.5688 22.0857H34.1412C34.1198 22.0857 34.1155 22.1657 34.1366 22.1712C34.1386 22.1714 34.1409 22.172 34.1409 22.172C34.3574 22.1989 34.4579 22.2214 34.587 22.3014C34.7189 22.3834 34.7076 22.4492 34.7076 22.6354L34.7079 26.0879C34.7079 26.8752 34.2567 27.48 33.3619 27.48C32.4664 27.48 32.0154 26.8749 32.0154 26.0879L32.0157 22.6363C32.0157 22.4501 32.0047 22.3836 32.1366 22.3017C32.2657 22.2214 32.3737 22.2015 32.5827 22.172C32.5827 22.172 32.585 22.1717 32.5867 22.1712C32.6081 22.1657 32.6044 22.086 32.5824 22.086H29.3474C29.3234 22.086 29.3283 22.1665 29.3485 22.1709C29.3503 22.1712 29.3523 22.1717 29.3523 22.1717C29.4706 22.1789 29.5518 22.1856 29.6245 22.248C29.7325 22.3395 29.7498 22.4489 29.7498 22.6354V26.0292C29.7498 27.6651 30.6448 29.0547 33.3619 29.0547C36.0782 29.0547 36.9738 27.6651 36.9738 26.0292V22.6351H36.9735Z" fill="white"/>
<path d="M26.5854 28.9303C26.6068 28.9303 26.6111 28.85 26.5901 28.8445C26.5883 28.8442 26.586 28.8439 26.586 28.8439C26.3732 28.8076 26.241 28.7943 26.1117 28.7143C25.9797 28.6326 25.9907 28.5662 25.9907 28.38V26.1999L28.361 22.6802C28.491 22.487 28.5738 22.3862 28.6803 22.2965C28.6985 22.2812 28.7421 22.2523 28.769 22.2355C28.8666 22.1865 28.9041 22.1752 29.0248 22.1717C29.0248 22.1717 29.0271 22.1712 29.0288 22.1709C29.0505 22.168 29.0574 22.086 29.0326 22.086L25.8356 22.0857C25.8094 22.0857 25.8149 22.1694 25.8371 22.1714C25.8388 22.1717 25.8411 22.1726 25.8411 22.1726C25.9965 22.1726 26.1873 22.1738 26.1561 22.3964C26.1385 22.6126 25.2169 23.945 24.8889 24.4508C24.8419 24.5233 24.8052 24.5984 24.7893 24.6893C24.7775 24.5998 24.7212 24.5086 24.6831 24.452C24.2258 23.7706 23.4433 22.6666 23.4208 22.3961C23.4021 22.1651 23.5811 22.172 23.7361 22.172C23.7361 22.172 23.7384 22.1712 23.7401 22.1712C23.7621 22.1691 23.7702 22.0863 23.7445 22.0863L20.387 22.0866C20.3674 22.0866 20.3694 22.1636 20.3893 22.1712C20.3911 22.1717 20.3934 22.172 20.3934 22.172C20.5369 22.1865 20.6151 22.1766 20.7831 22.2583C20.8028 22.2679 20.8495 22.2993 20.868 22.3144C20.9743 22.4041 21.0395 22.487 21.1697 22.6802L23.5369 26.1852L23.5372 28.3803C23.5372 28.5668 23.5482 28.6332 23.4162 28.7149C23.2869 28.7948 23.1546 28.8081 22.9419 28.8445C22.9419 28.8445 22.9395 28.8448 22.9378 28.8451C22.9164 28.8506 22.9202 28.9308 22.9419 28.9308H26.5854V28.9303Z" fill="white"/>
</svg>
