<svg width="15" height="16" viewBox="0 0 15 16" fill="none" xmlns="http://www.w3.org/2000/svg">
<path d="M6.8125 1.21875L6.1875 1.8125C6.03125 1.96875 6.03125 2.21875 6.1875 2.34375L11.0312 7.1875H0.375C0.15625 7.1875 0 7.375 0 7.5625V8.4375C0 8.65625 0.15625 8.8125 0.375 8.8125H11.0312L6.1875 13.6875C6.03125 13.8125 6.03125 14.0625 6.1875 14.2188L6.8125 14.8125C6.9375 14.9688 7.1875 14.9688 7.34375 14.8125L13.875 8.28125C14.0312 8.125 14.0312 7.90625 13.875 7.75L7.34375 1.21875C7.1875 1.0625 6.9375 1.0625 6.8125 1.21875Z" fill="#006CF3"/>
</svg>
