<svg width="40" height="40" viewBox="0 0 40 40" fill="none" xmlns="http://www.w3.org/2000/svg">
<path d="M0 20C0 8.95431 8.95431 0 20 0V0C31.0457 0 40 8.95431 40 20V20C40 31.0457 31.0457 40 20 40V40C8.95431 40 0 31.0457 0 20V20Z" fill="#016DF4"/>
<path d="M19.5837 22.1786C19.5837 22.0982 19.5435 22.0078 19.4833 21.9476L18.3382 20.8025C18.2779 20.7422 18.1875 20.702 18.1071 20.702C18.0268 20.702 17.9364 20.7422 17.8761 20.8025L14.5413 24.1373L13.0949 22.6909C12.9743 22.5703 12.8136 22.5 12.6429 22.5C12.2913 22.5 12 22.7913 12 23.1429V27.6429C12 27.9945 12.2913 28.2858 12.6429 28.2858H17.1429C17.4944 28.2858 17.7857 27.9945 17.7857 27.6429C17.7857 27.4721 17.7154 27.3114 17.5949 27.1909L16.1484 25.7445L19.4833 22.4096C19.5435 22.3494 19.5837 22.259 19.5837 22.1786ZM27.4286 13.5C27.4286 13.1485 27.1373 12.8572 26.7857 12.8572H22.2857C21.9342 12.8572 21.6429 13.1485 21.6429 13.5C21.6429 13.6708 21.7132 13.8315 21.8337 13.952L23.2801 15.3985L19.9453 18.7333C19.885 18.7936 19.8449 18.884 19.8449 18.9643C19.8449 19.0447 19.885 19.1351 19.9453 19.1953L21.0904 20.3404C21.1507 20.4007 21.2411 20.4409 21.3214 20.4409C21.4018 20.4409 21.4922 20.4007 21.5525 20.3404L24.8873 17.0056L26.3337 18.452C26.4542 18.5726 26.615 18.6429 26.7857 18.6429C27.1373 18.6429 27.4286 18.3516 27.4286 18V13.5Z" fill="white"/>
</svg>
