<svg width="1012" height="520" viewBox="0 0 1012 520" fill="none" xmlns="http://www.w3.org/2000/svg">
<path d="M0 0H1012V519.177H0V0Z" fill="#006CF3"/>
<mask id="mask0_276_1450" style="mask-type:alpha" maskUnits="userSpaceOnUse" x="0" y="0" width="1012" height="520">
<path d="M0 0H1012V519.177H0V0Z" fill="white"/>
</mask>
<g mask="url(#mask0_276_1450)">
<mask id="mask1_276_1450" style="mask-type:alpha" maskUnits="userSpaceOnUse" x="-253" y="-263" width="2444" height="1336">
<path d="M-21.0754 -262.052L2190.75 337.466L1959.14 1072.57L-252.683 473.057L-21.0754 -262.052Z" fill="url(#paint0_linear_276_1450)"/>
</mask>
<g mask="url(#mask1_276_1450)">
<path d="M-651.067 317.227C-650.488 301.181 -648.088 285.141 -640.913 269.901C-628.274 243.053 -606.136 263.645 -580.807 274.967C-569.793 279.889 -557.114 287.471 -547.948 277.101C-537.162 264.896 -542.726 246.26 -535.79 232.799C-523.679 209.292 -494.637 182.133 -452.816 178.231C-411.626 174.387 -365.424 188.333 -335.504 206.853C-315.154 219.449 -296.49 234.152 -279.836 250.013M-279.836 250.013C-248.122 280.216 -223.693 314.619 -208.781 346.675C-183.951 400.047 -153.655 532.032 -302.599 506.914C-350.047 498.913 -381.416 477.482 -393.287 447.399C-423.062 371.947 -366.287 310.287 -291.708 258.168C-287.811 255.444 -283.853 252.723 -279.836 250.013ZM-279.836 250.013C-217.233 207.773 -140.06 167.983 -46.7368 156.459C-2.50787 150.998 46.7325 155.464 93.5726 165.947M93.5726 165.947C141.474 176.666 186.865 193.677 221.819 212.794C393.812 306.86 410.103 485.229 284.893 589.981C238.495 628.798 152.498 654.926 81.5172 616.046C49.6288 598.579 40.1267 583.677 31.3535 557.043C3.4224 472.248 19.2178 377.926 41.8989 295.69C54.0399 251.67 70.8552 208.032 93.5726 165.947ZM93.5726 165.947C128.127 101.931 176.337 41.507 242.524 -11.2126C268.198 -31.6629 318.092 -62.6885 351.917 -78.9477C391.272 -97.8654 443.857 -118.907 497.918 -114.591C538.7 -111.336 564.611 -99.5763 594.698 -81.3827C656.987 -43.7167 689.827 5.84175 713.459 56.3826C729.128 89.8933 743.599 125.879 753.116 162.296M753.116 162.296C765.39 209.263 769.425 256.947 757.168 300.964C751.263 322.17 740.723 350.639 712.429 364.35C683.893 378.179 646.163 366.227 632.69 345.803C605.387 304.411 631.876 244.987 666.167 211.201C687.418 190.263 717.905 173.559 753.116 162.296ZM753.116 162.296C782.481 152.903 815.131 147.294 848.449 146.168C896.864 144.532 952.017 147.058 989.606 170.815C996.897 175.424 1003.7 180.351 1010.01 185.536M1010.01 185.536C1037.81 208.399 1055.85 236.253 1062.71 263.685C1064.25 269.85 1077.31 302.289 1054.57 301.159C1015.12 299.2 995.223 270.499 989.29 249.678C981.866 223.627 990.695 201.869 1010.01 185.536ZM1010.01 185.536C1041.71 158.719 1101.68 146.525 1164.37 153.961C1208.98 159.253 1256.78 179.802 1262.03 209.865" stroke="#0169EA" stroke-width="765.12" stroke-linejoin="round"/>
<path d="M-651.067 317.227C-650.488 301.181 -648.088 285.141 -640.913 269.901C-628.274 243.053 -606.136 263.645 -580.807 274.967C-569.793 279.889 -557.114 287.471 -547.948 277.101C-537.163 264.896 -542.726 246.26 -535.79 232.799C-523.679 209.292 -494.637 182.133 -452.816 178.231C-411.626 174.387 -365.424 188.333 -335.504 206.853C-315.154 219.449 -296.49 234.152 -279.836 250.013M-279.836 250.013C-248.122 280.216 -223.693 314.619 -208.781 346.675C-183.951 400.047 -153.655 532.032 -302.599 506.914C-350.047 498.913 -381.416 477.482 -393.287 447.399C-423.062 371.948 -366.287 310.287 -291.708 258.168C-287.811 255.444 -283.853 252.723 -279.836 250.013ZM-279.836 250.013C-217.233 207.773 -140.06 167.983 -46.7368 156.459C-2.50786 150.998 46.7325 155.464 93.5726 165.947M93.5726 165.947C141.474 176.666 186.865 193.677 221.819 212.794C393.812 306.86 410.103 485.229 284.893 589.981C238.495 628.799 152.498 654.927 81.5172 616.046C49.6287 598.579 40.1267 583.677 31.3535 557.043C3.42242 472.248 19.2178 377.926 41.8989 295.69C54.0399 251.67 70.8552 208.032 93.5726 165.947ZM93.5726 165.947C128.127 101.932 176.337 41.5071 242.524 -11.2126C268.199 -31.6629 318.092 -62.6884 351.917 -78.9477C391.273 -97.8654 443.857 -118.907 497.918 -114.591C538.7 -111.336 564.611 -99.5763 594.698 -81.3827C656.987 -43.7167 689.827 5.84176 713.459 56.3826C729.128 89.8933 743.599 125.879 753.116 162.296M753.116 162.296C765.39 209.263 769.425 256.947 757.168 300.964C751.263 322.17 740.723 350.639 712.429 364.35C683.893 378.179 646.163 366.227 632.69 345.803C605.387 304.411 631.876 244.987 666.167 211.201C687.418 190.263 717.905 173.559 753.116 162.296ZM753.116 162.296C782.481 152.903 815.131 147.294 848.449 146.168C896.864 144.532 952.017 147.058 989.606 170.816C996.897 175.424 1003.7 180.352 1010.01 185.536M1010.01 185.536C1037.81 208.399 1055.85 236.253 1062.71 263.685C1064.25 269.85 1077.31 302.289 1054.57 301.159C1015.12 299.2 995.223 270.499 989.29 249.678C981.866 223.627 990.695 201.869 1010.01 185.536ZM1010.01 185.536C1041.71 158.719 1101.68 146.525 1164.37 153.961C1208.98 159.253 1256.78 179.802 1262.03 209.865" stroke="#006CF3" stroke-width="692.251" stroke-linejoin="round"/>
<path d="M-651.067 317.227C-650.488 301.181 -648.088 285.141 -640.913 269.901C-628.274 243.053 -606.136 263.645 -580.807 274.967C-569.793 279.889 -557.114 287.471 -547.948 277.101C-537.162 264.896 -542.726 246.26 -535.79 232.799C-523.679 209.292 -494.637 182.133 -452.816 178.231C-411.626 174.387 -365.424 188.333 -335.504 206.853C-315.154 219.449 -296.49 234.152 -279.836 250.013M-279.836 250.013C-248.122 280.216 -223.693 314.619 -208.781 346.675C-183.951 400.047 -153.655 532.032 -302.599 506.914C-350.047 498.913 -381.416 477.482 -393.287 447.399C-423.062 371.947 -366.287 310.287 -291.708 258.168C-287.811 255.444 -283.853 252.723 -279.836 250.013ZM-279.836 250.013C-217.233 207.773 -140.06 167.983 -46.7368 156.459C-2.50787 150.998 46.7325 155.464 93.5726 165.947M93.5726 165.947C141.474 176.666 186.865 193.677 221.819 212.794C393.812 306.86 410.103 485.229 284.893 589.981C238.495 628.798 152.498 654.926 81.5172 616.046C49.6288 598.579 40.1267 583.677 31.3535 557.043C3.4224 472.248 19.2178 377.926 41.8989 295.69C54.0399 251.67 70.8552 208.032 93.5726 165.947ZM93.5726 165.947C128.127 101.931 176.337 41.507 242.524 -11.2126C268.198 -31.6629 318.092 -62.6885 351.917 -78.9477C391.272 -97.8654 443.857 -118.907 497.918 -114.591C538.7 -111.336 564.611 -99.5763 594.698 -81.3827C656.987 -43.7167 689.827 5.84175 713.459 56.3826C729.128 89.8933 743.599 125.879 753.116 162.296M753.116 162.296C765.39 209.263 769.425 256.947 757.168 300.964C751.263 322.17 740.723 350.639 712.429 364.35C683.893 378.179 646.163 366.227 632.69 345.803C605.387 304.411 631.876 244.987 666.167 211.201C687.418 190.263 717.905 173.559 753.116 162.296ZM753.116 162.296C782.481 152.903 815.131 147.294 848.449 146.168C896.864 144.532 952.017 147.058 989.606 170.815C996.897 175.424 1003.7 180.351 1010.01 185.536M1010.01 185.536C1037.81 208.399 1055.85 236.253 1062.71 263.685C1064.25 269.85 1077.31 302.289 1054.57 301.159C1015.12 299.2 995.223 270.499 989.29 249.678C981.866 223.627 990.695 201.869 1010.01 185.536ZM1010.01 185.536C1041.71 158.719 1101.68 146.525 1164.37 153.961C1208.98 159.253 1256.78 179.802 1262.03 209.865" stroke="#0169EA" stroke-width="619.383" stroke-linejoin="round"/>
<path d="M-651.067 317.227C-650.488 301.181 -648.088 285.141 -640.913 269.901C-628.274 243.053 -606.136 263.645 -580.807 274.967C-569.793 279.889 -557.114 287.471 -547.948 277.101C-537.162 264.896 -542.726 246.26 -535.79 232.799C-523.679 209.292 -494.637 182.133 -452.816 178.231C-411.626 174.387 -365.424 188.333 -335.504 206.853C-315.154 219.449 -296.49 234.152 -279.836 250.013M-279.836 250.013C-248.122 280.216 -223.693 314.619 -208.781 346.675C-183.951 400.047 -153.655 532.032 -302.599 506.914C-350.047 498.913 -381.416 477.482 -393.287 447.399C-423.062 371.947 -366.287 310.287 -291.708 258.168C-287.811 255.444 -283.853 252.723 -279.836 250.013ZM-279.836 250.013C-217.233 207.773 -140.06 167.983 -46.7368 156.459C-2.50787 150.998 46.7325 155.464 93.5726 165.947M93.5726 165.947C141.474 176.666 186.865 193.677 221.819 212.794C393.812 306.86 410.103 485.229 284.893 589.981C238.495 628.798 152.498 654.926 81.5172 616.046C49.6288 598.579 40.1267 583.677 31.3535 557.043C3.4224 472.248 19.2178 377.926 41.8989 295.69C54.0399 251.67 70.8552 208.032 93.5726 165.947ZM93.5726 165.947C128.127 101.931 176.337 41.507 242.524 -11.2126C268.198 -31.6629 318.092 -62.6885 351.917 -78.9477C391.272 -97.8654 443.857 -118.907 497.918 -114.591C538.7 -111.336 564.611 -99.5763 594.698 -81.3827C656.987 -43.7167 689.827 5.84175 713.459 56.3826C729.128 89.8933 743.599 125.879 753.116 162.296M753.116 162.296C765.39 209.263 769.425 256.947 757.168 300.964C751.263 322.17 740.723 350.639 712.429 364.35C683.893 378.179 646.163 366.227 632.69 345.803C605.387 304.411 631.876 244.987 666.167 211.201C687.418 190.263 717.905 173.559 753.116 162.296ZM753.116 162.296C782.481 152.903 815.131 147.294 848.449 146.168C896.864 144.532 952.017 147.058 989.606 170.815C996.897 175.424 1003.7 180.351 1010.01 185.536M1010.01 185.536C1037.81 208.399 1055.85 236.253 1062.71 263.685C1064.25 269.85 1077.31 302.289 1054.57 301.159C1015.12 299.2 995.223 270.499 989.29 249.678C981.866 223.627 990.695 201.869 1010.01 185.536ZM1010.01 185.536C1041.71 158.719 1101.68 146.525 1164.37 153.961C1208.98 159.253 1256.78 179.802 1262.03 209.865" stroke="#006CF3" stroke-width="546.514" stroke-linejoin="round"/>
<path d="M-651.067 317.227C-650.488 301.181 -648.088 285.141 -640.913 269.901C-628.274 243.053 -606.136 263.645 -580.807 274.967C-569.793 279.889 -557.114 287.471 -547.948 277.101C-537.162 264.896 -542.726 246.26 -535.79 232.799C-523.679 209.292 -494.637 182.133 -452.816 178.231C-411.626 174.387 -365.424 188.333 -335.504 206.853C-315.154 219.449 -296.49 234.152 -279.836 250.013M-279.836 250.013C-248.122 280.216 -223.693 314.619 -208.781 346.675C-183.951 400.047 -153.655 532.032 -302.599 506.914C-350.047 498.913 -381.416 477.482 -393.287 447.399C-423.062 371.947 -366.287 310.287 -291.708 258.168C-287.811 255.444 -283.853 252.723 -279.836 250.013ZM-279.836 250.013C-217.233 207.773 -140.06 167.983 -46.7368 156.459C-2.50787 150.998 46.7325 155.464 93.5726 165.947M93.5726 165.947C141.474 176.666 186.865 193.677 221.819 212.794C393.812 306.86 410.103 485.229 284.893 589.981C238.495 628.798 152.498 654.926 81.5172 616.046C49.6288 598.579 40.1267 583.677 31.3535 557.043C3.4224 472.248 19.2178 377.926 41.8989 295.69C54.0399 251.67 70.8552 208.032 93.5726 165.947ZM93.5726 165.947C128.127 101.931 176.337 41.507 242.524 -11.2126C268.198 -31.6629 318.092 -62.6885 351.917 -78.9477C391.272 -97.8654 443.857 -118.907 497.918 -114.591C538.7 -111.336 564.611 -99.5763 594.698 -81.3827C656.987 -43.7167 689.827 5.84175 713.459 56.3826C729.128 89.8933 743.599 125.879 753.116 162.296M753.116 162.296C765.39 209.263 769.425 256.947 757.168 300.964C751.263 322.17 740.723 350.639 712.429 364.35C683.893 378.179 646.163 366.227 632.69 345.803C605.387 304.411 631.876 244.987 666.167 211.201C687.418 190.263 717.905 173.559 753.116 162.296ZM753.116 162.296C782.481 152.903 815.131 147.294 848.449 146.168C896.864 144.532 952.017 147.058 989.606 170.815C996.897 175.424 1003.7 180.351 1010.01 185.536M1010.01 185.536C1037.81 208.399 1055.85 236.253 1062.71 263.685C1064.25 269.85 1077.31 302.289 1054.57 301.159C1015.12 299.2 995.223 270.499 989.29 249.678C981.866 223.627 990.695 201.869 1010.01 185.536ZM1010.01 185.536C1041.71 158.719 1101.68 146.525 1164.37 153.961C1208.98 159.253 1256.78 179.802 1262.03 209.865" stroke="#0169EA" stroke-width="473.646" stroke-linejoin="round"/>
<path d="M-651.067 317.227C-650.488 301.181 -648.088 285.141 -640.913 269.901C-628.274 243.053 -606.136 263.645 -580.807 274.967C-569.793 279.889 -557.114 287.471 -547.948 277.101C-537.162 264.896 -542.726 246.26 -535.79 232.799C-523.679 209.292 -494.637 182.133 -452.816 178.231C-411.626 174.387 -365.424 188.333 -335.504 206.853C-315.154 219.449 -296.49 234.152 -279.836 250.013M-279.836 250.013C-248.122 280.216 -223.693 314.619 -208.781 346.675C-183.951 400.047 -153.655 532.032 -302.599 506.914C-350.047 498.913 -381.416 477.482 -393.287 447.399C-423.062 371.947 -366.287 310.287 -291.708 258.168C-287.811 255.444 -283.853 252.723 -279.836 250.013ZM-279.836 250.013C-217.233 207.773 -140.06 167.983 -46.7368 156.459C-2.50787 150.998 46.7325 155.464 93.5726 165.947M93.5726 165.947C141.474 176.666 186.865 193.677 221.819 212.794C393.812 306.86 410.103 485.229 284.893 589.981C238.495 628.798 152.498 654.926 81.5172 616.046C49.6288 598.579 40.1267 583.677 31.3535 557.043C3.4224 472.248 19.2178 377.926 41.8989 295.69C54.0399 251.67 70.8552 208.032 93.5726 165.947ZM93.5726 165.947C128.127 101.931 176.337 41.507 242.524 -11.2126C268.198 -31.6629 318.092 -62.6885 351.917 -78.9477C391.272 -97.8654 443.857 -118.907 497.918 -114.591C538.7 -111.336 564.611 -99.5763 594.698 -81.3827C656.987 -43.7167 689.827 5.84175 713.459 56.3826C729.128 89.8933 743.599 125.879 753.116 162.296M753.116 162.296C765.39 209.263 769.425 256.947 757.168 300.964C751.263 322.17 740.723 350.639 712.429 364.35C683.893 378.179 646.163 366.227 632.69 345.803C605.387 304.411 631.876 244.987 666.167 211.201C687.418 190.263 717.905 173.559 753.116 162.296ZM753.116 162.296C782.481 152.903 815.131 147.294 848.449 146.168C896.864 144.532 952.017 147.058 989.606 170.815C996.897 175.424 1003.7 180.351 1010.01 185.536M1010.01 185.536C1037.81 208.399 1055.85 236.253 1062.71 263.685C1064.25 269.85 1077.31 302.289 1054.57 301.159C1015.12 299.2 995.223 270.499 989.29 249.678C981.866 223.627 990.695 201.869 1010.01 185.536ZM1010.01 185.536C1041.71 158.719 1101.68 146.525 1164.37 153.961C1208.98 159.253 1256.78 179.802 1262.03 209.865" stroke="#006CF3" stroke-width="400.777" stroke-linejoin="round"/>
<path d="M-651.067 317.227C-650.488 301.181 -648.088 285.141 -640.913 269.901C-628.274 243.053 -606.136 263.645 -580.807 274.967C-569.793 279.889 -557.114 287.471 -547.948 277.101C-537.162 264.896 -542.726 246.26 -535.79 232.799C-523.679 209.292 -494.637 182.133 -452.816 178.231C-411.626 174.387 -365.424 188.333 -335.504 206.853C-315.154 219.449 -296.49 234.152 -279.836 250.013M-279.836 250.013C-248.122 280.216 -223.693 314.619 -208.781 346.675C-183.951 400.047 -153.655 532.032 -302.599 506.914C-350.047 498.913 -381.416 477.482 -393.287 447.399C-423.062 371.947 -366.287 310.287 -291.708 258.168C-287.811 255.444 -283.853 252.723 -279.836 250.013ZM-279.836 250.013C-217.233 207.773 -140.06 167.983 -46.7368 156.459C-2.50787 150.998 46.7325 155.464 93.5726 165.947M93.5726 165.947C141.474 176.666 186.865 193.677 221.819 212.794C393.812 306.86 410.103 485.229 284.893 589.981C238.495 628.798 152.498 654.926 81.5172 616.046C49.6288 598.579 40.1267 583.677 31.3535 557.043C3.4224 472.248 19.2178 377.926 41.8989 295.69C54.0399 251.67 70.8552 208.032 93.5726 165.947ZM93.5726 165.947C128.127 101.931 176.337 41.507 242.524 -11.2126C268.198 -31.6629 318.092 -62.6885 351.917 -78.9477C391.272 -97.8654 443.857 -118.907 497.918 -114.591C538.7 -111.336 564.611 -99.5763 594.698 -81.3827C656.987 -43.7167 689.827 5.84175 713.459 56.3826C729.128 89.8933 743.599 125.879 753.116 162.296M753.116 162.296C765.39 209.263 769.425 256.947 757.168 300.964C751.263 322.17 740.723 350.639 712.429 364.35C683.893 378.179 646.163 366.227 632.69 345.803C605.387 304.411 631.876 244.987 666.167 211.201C687.418 190.263 717.905 173.559 753.116 162.296ZM753.116 162.296C782.481 152.903 815.131 147.294 848.449 146.168C896.864 144.532 952.017 147.058 989.606 170.815C996.897 175.424 1003.7 180.351 1010.01 185.536M1010.01 185.536C1037.81 208.399 1055.85 236.253 1062.71 263.685C1064.25 269.85 1077.31 302.289 1054.57 301.159C1015.12 299.2 995.223 270.499 989.29 249.678C981.866 223.627 990.695 201.869 1010.01 185.536ZM1010.01 185.536C1041.71 158.719 1101.68 146.525 1164.37 153.961C1208.98 159.253 1256.78 179.802 1262.03 209.865" stroke="#0169EA" stroke-width="327.909" stroke-linejoin="round"/>
<path d="M-651.067 317.227C-650.488 301.181 -648.088 285.141 -640.913 269.901C-628.274 243.053 -606.136 263.645 -580.807 274.967C-569.793 279.889 -557.114 287.471 -547.948 277.101C-537.162 264.896 -542.726 246.26 -535.79 232.799C-523.679 209.292 -494.637 182.133 -452.816 178.231C-411.626 174.387 -365.424 188.333 -335.504 206.853C-315.154 219.449 -296.49 234.152 -279.836 250.013M-279.836 250.013C-248.122 280.216 -223.693 314.619 -208.781 346.675C-183.951 400.047 -153.655 532.032 -302.599 506.914C-350.047 498.913 -381.416 477.482 -393.287 447.399C-423.062 371.947 -366.287 310.287 -291.708 258.168C-287.811 255.444 -283.853 252.723 -279.836 250.013ZM-279.836 250.013C-217.233 207.773 -140.06 167.983 -46.7368 156.459C-2.50787 150.998 46.7325 155.464 93.5726 165.947M93.5726 165.947C141.474 176.666 186.865 193.677 221.819 212.794C393.812 306.86 410.103 485.229 284.893 589.981C238.495 628.798 152.498 654.926 81.5172 616.046C49.6288 598.579 40.1267 583.677 31.3535 557.043C3.4224 472.248 19.2178 377.926 41.8989 295.69C54.0399 251.67 70.8552 208.032 93.5726 165.947ZM93.5726 165.947C128.127 101.931 176.337 41.507 242.524 -11.2126C268.198 -31.6629 318.092 -62.6885 351.917 -78.9477C391.272 -97.8654 443.857 -118.907 497.918 -114.591C538.7 -111.336 564.611 -99.5763 594.698 -81.3827C656.987 -43.7167 689.827 5.84175 713.459 56.3826C729.128 89.8933 743.599 125.879 753.116 162.296M753.116 162.296C765.39 209.263 769.425 256.947 757.168 300.964C751.263 322.17 740.723 350.639 712.429 364.35C683.893 378.179 646.163 366.227 632.69 345.803C605.387 304.411 631.876 244.987 666.167 211.201C687.418 190.263 717.905 173.559 753.116 162.296ZM753.116 162.296C782.481 152.903 815.131 147.294 848.449 146.168C896.864 144.532 952.017 147.058 989.606 170.815C996.897 175.424 1003.7 180.351 1010.01 185.536M1010.01 185.536C1037.81 208.399 1055.85 236.253 1062.71 263.685C1064.25 269.85 1077.31 302.289 1054.57 301.159C1015.12 299.2 995.223 270.499 989.29 249.678C981.866 223.627 990.695 201.869 1010.01 185.536ZM1010.01 185.536C1041.71 158.719 1101.68 146.525 1164.37 153.961C1208.98 159.253 1256.78 179.802 1262.03 209.865" stroke="#006CF3" stroke-width="255.04" stroke-linejoin="round"/>
<path d="M-651.067 317.227C-650.488 301.181 -648.088 285.141 -640.913 269.901C-628.274 243.053 -606.136 263.645 -580.807 274.967C-569.793 279.889 -557.114 287.471 -547.948 277.101C-537.163 264.896 -542.726 246.26 -535.79 232.799C-523.679 209.292 -494.637 182.133 -452.816 178.231C-411.626 174.387 -365.424 188.333 -335.504 206.853C-315.154 219.449 -296.49 234.152 -279.836 250.013M-279.836 250.013C-248.122 280.216 -223.693 314.619 -208.781 346.675C-183.951 400.047 -153.655 532.032 -302.599 506.914C-350.047 498.913 -381.416 477.482 -393.287 447.399C-423.062 371.947 -366.287 310.287 -291.708 258.168C-287.811 255.444 -283.853 252.723 -279.836 250.013ZM-279.836 250.013C-217.233 207.773 -140.06 167.983 -46.7368 156.459C-2.5079 150.998 46.7325 155.464 93.5726 165.947M93.5726 165.947C141.474 176.666 186.865 193.677 221.819 212.794C393.812 306.86 410.103 485.229 284.893 589.981C238.495 628.798 152.498 654.926 81.5171 616.046C49.6287 598.579 40.1266 583.677 31.3535 557.043C3.42237 472.248 19.2177 377.926 41.8988 295.69C54.0399 251.67 70.8552 208.032 93.5726 165.947ZM93.5726 165.947C128.127 101.931 176.337 41.507 242.524 -11.2126C268.198 -31.663 318.092 -62.6885 351.917 -78.9477C391.272 -97.8654 443.857 -118.907 497.918 -114.591C538.699 -111.336 564.611 -99.5763 594.698 -81.3827C656.987 -43.7167 689.827 5.84174 713.459 56.3826C729.128 89.8933 743.599 125.879 753.116 162.296M753.116 162.296C765.39 209.263 769.425 256.947 757.168 300.964C751.263 322.17 740.723 350.639 712.429 364.35C683.893 378.179 646.163 366.227 632.69 345.803C605.387 304.411 631.876 244.987 666.167 211.201C687.418 190.263 717.905 173.559 753.116 162.296ZM753.116 162.296C782.481 152.903 815.131 147.294 848.449 146.168C896.864 144.532 952.017 147.058 989.606 170.815C996.897 175.424 1003.7 180.351 1010.01 185.536M1010.01 185.536C1037.81 208.399 1055.85 236.253 1062.71 263.685C1064.25 269.85 1077.31 302.289 1054.57 301.159C1015.12 299.2 995.223 270.499 989.29 249.678C981.866 223.627 990.695 201.869 1010.01 185.536ZM1010.01 185.536C1041.71 158.719 1101.68 146.525 1164.37 153.961C1208.98 159.253 1256.78 179.802 1262.03 209.864" stroke="#0169EA" stroke-width="182.171" stroke-linejoin="round"/>
<path d="M-651.067 317.227C-650.488 301.181 -648.088 285.141 -640.913 269.901C-628.274 243.053 -606.136 263.645 -580.807 274.967C-569.793 279.889 -557.114 287.471 -547.948 277.101C-537.162 264.896 -542.726 246.26 -535.79 232.799C-523.679 209.292 -494.637 182.133 -452.816 178.231C-411.626 174.387 -365.424 188.333 -335.504 206.853C-315.154 219.449 -296.49 234.152 -279.836 250.013M-279.836 250.013C-248.122 280.216 -223.693 314.619 -208.781 346.675C-183.951 400.047 -153.655 532.032 -302.599 506.914C-350.047 498.913 -381.416 477.482 -393.287 447.399C-423.062 371.947 -366.287 310.287 -291.708 258.168C-287.811 255.444 -283.853 252.723 -279.836 250.013ZM-279.836 250.013C-217.233 207.773 -140.06 167.983 -46.7368 156.459C-2.50787 150.998 46.7325 155.464 93.5726 165.947M93.5726 165.947C141.474 176.666 186.865 193.677 221.819 212.794C393.812 306.86 410.103 485.229 284.893 589.981C238.495 628.798 152.498 654.926 81.5172 616.046C49.6288 598.579 40.1267 583.677 31.3535 557.043C3.4224 472.248 19.2178 377.926 41.8989 295.69C54.0399 251.67 70.8552 208.032 93.5726 165.947ZM93.5726 165.947C128.127 101.931 176.337 41.507 242.524 -11.2126C268.198 -31.6629 318.092 -62.6885 351.917 -78.9477C391.272 -97.8654 443.857 -118.907 497.918 -114.591C538.7 -111.336 564.611 -99.5763 594.698 -81.3827C656.987 -43.7167 689.827 5.84175 713.459 56.3826C729.128 89.8933 743.599 125.879 753.116 162.296M753.116 162.296C765.39 209.263 769.425 256.947 757.168 300.964C751.263 322.17 740.723 350.639 712.429 364.35C683.893 378.179 646.163 366.227 632.69 345.803C605.387 304.411 631.876 244.987 666.167 211.201C687.418 190.263 717.905 173.559 753.116 162.296ZM753.116 162.296C782.481 152.903 815.131 147.294 848.449 146.168C896.864 144.532 952.017 147.058 989.606 170.815C996.897 175.424 1003.7 180.351 1010.01 185.536M1010.01 185.536C1037.81 208.399 1055.85 236.253 1062.71 263.685C1064.25 269.85 1077.31 302.289 1054.57 301.159C1015.12 299.2 995.223 270.499 989.29 249.678C981.866 223.627 990.695 201.869 1010.01 185.536ZM1010.01 185.536C1041.71 158.719 1101.68 146.525 1164.37 153.961C1208.98 159.253 1256.78 179.802 1262.03 209.865" stroke="#006CF3" stroke-width="109.303" stroke-linejoin="round"/>
<path d="M-651.067 317.227C-650.488 301.181 -648.088 285.141 -640.913 269.901C-628.274 243.053 -606.136 263.645 -580.807 274.967C-569.793 279.889 -557.114 287.471 -547.948 277.101C-537.162 264.896 -542.726 246.26 -535.79 232.799C-523.679 209.292 -494.637 182.133 -452.816 178.231C-411.626 174.387 -365.424 188.333 -335.504 206.853C-315.154 219.449 -296.49 234.152 -279.836 250.013M-279.836 250.013C-248.122 280.216 -223.693 314.619 -208.781 346.675C-183.951 400.047 -153.655 532.032 -302.599 506.914C-350.047 498.913 -381.416 477.482 -393.287 447.399C-423.062 371.947 -366.287 310.287 -291.708 258.168C-287.811 255.444 -283.853 252.723 -279.836 250.013ZM-279.836 250.013C-217.233 207.773 -140.06 167.983 -46.7368 156.459C-2.50787 150.998 46.7325 155.464 93.5726 165.947M93.5726 165.947C141.474 176.666 186.865 193.677 221.819 212.794C393.812 306.86 410.103 485.229 284.893 589.981C238.495 628.798 152.498 654.926 81.5172 616.046C49.6288 598.579 40.1267 583.677 31.3535 557.043C3.4224 472.248 19.2178 377.926 41.8989 295.69C54.0399 251.67 70.8552 208.032 93.5726 165.947ZM93.5726 165.947C128.127 101.931 176.337 41.507 242.524 -11.2126C268.198 -31.6629 318.092 -62.6885 351.917 -78.9477C391.272 -97.8654 443.857 -118.907 497.918 -114.591C538.7 -111.336 564.611 -99.5763 594.698 -81.3827C656.987 -43.7167 689.827 5.84175 713.459 56.3826C729.128 89.8933 743.599 125.879 753.116 162.296M753.116 162.296C765.39 209.263 769.425 256.947 757.168 300.964C751.263 322.17 740.723 350.639 712.429 364.35C683.893 378.179 646.163 366.227 632.69 345.803C605.387 304.411 631.876 244.987 666.167 211.201C687.418 190.263 717.905 173.559 753.116 162.296ZM753.116 162.296C782.481 152.903 815.131 147.294 848.449 146.168C896.864 144.532 952.017 147.058 989.606 170.815C996.897 175.424 1003.7 180.351 1010.01 185.536M1010.01 185.536C1037.81 208.399 1055.85 236.253 1062.71 263.685C1064.25 269.85 1077.31 302.289 1054.57 301.159C1015.12 299.2 995.223 270.499 989.29 249.678C981.866 223.627 990.695 201.869 1010.01 185.536ZM1010.01 185.536C1041.71 158.719 1101.68 146.525 1164.37 153.961C1208.98 159.253 1256.78 179.802 1262.03 209.865" stroke="#0169EA" stroke-width="36.4343" stroke-linejoin="round"/>
</g>
</g>
<defs>
<linearGradient id="paint0_linear_276_1450" x1="949.75" y1="682.259" x2="1097.31" y2="1611.27" gradientUnits="userSpaceOnUse">
<stop stop-color="#FBFAF5"/>
<stop offset="1" stop-color="#FBFAF5" stop-opacity="0"/>
</linearGradient>
</defs>
</svg>
