<svg width="1012" height="980" viewBox="0 0 1012 980" fill="none" xmlns="http://www.w3.org/2000/svg">
<path d="M0 0H1012V980H0V0Z" fill="#006CF3"/>
<mask id="mask0_276_1468" style="mask-type:alpha" maskUnits="userSpaceOnUse" x="0" y="0" width="1012" height="980">
<path d="M0 0H1012V980H0V0Z" fill="white"/>
</mask>
<g mask="url(#mask0_276_1468)">
<mask id="mask1_276_1468" style="mask-type:alpha" maskUnits="userSpaceOnUse" x="-751" y="-432" width="4292" height="2344">
<path d="M-343.36 -432L3540 620.588L3133.36 1911.24L-750 858.65L-343.36 -432Z" fill="url(#paint0_linear_276_1468)"/>
</mask>
<g mask="url(#mask1_276_1468)">
<path d="M-1449.45 585.055C-1448.43 556.882 -1444.22 528.72 -1431.62 501.962C-1409.43 454.825 -1370.57 490.979 -1326.09 510.857C-1306.76 519.5 -1284.5 532.812 -1268.4 514.603C-1249.47 493.176 -1259.23 460.456 -1247.06 436.822C-1225.79 395.55 -1174.8 347.866 -1101.38 341.015C-1029.06 334.267 -947.941 358.752 -895.409 391.268C-859.68 413.384 -826.912 439.197 -797.672 467.045M-797.672 467.045C-741.991 520.073 -699.101 580.475 -672.918 636.757C-629.325 730.464 -576.133 962.192 -837.638 918.093C-920.944 904.044 -976.018 866.418 -996.861 813.6C-1049.14 681.129 -949.457 572.87 -818.516 481.363C-811.673 476.58 -804.725 471.804 -797.672 467.045ZM-797.672 467.045C-687.758 392.884 -552.264 323.023 -388.414 302.79C-310.76 293.201 -224.307 301.044 -142.069 319.448M-142.069 319.448C-57.9676 338.269 21.7265 368.135 83.0956 401.699C385.068 566.853 413.672 880.02 193.838 1063.94C112.374 1132.09 -38.6129 1177.96 -163.235 1109.7C-219.222 1079.03 -235.906 1052.87 -251.309 1006.1C-300.348 857.229 -272.616 691.625 -232.794 547.242C-211.478 469.954 -181.955 393.338 -142.069 319.448ZM-142.069 319.448C-81.4005 207.055 3.24323 100.966 119.449 8.40466C164.526 -27.5005 252.125 -81.9728 311.512 -110.519C380.61 -143.734 472.933 -180.677 567.85 -173.1C639.452 -167.384 684.945 -146.738 737.77 -114.795C847.132 -48.6636 904.79 38.3475 946.281 127.083C973.792 185.919 999.198 249.1 1015.91 313.038M1015.91 313.038C1037.46 395.5 1044.54 479.22 1023.02 556.501C1012.65 593.733 994.15 643.716 944.473 667.79C894.372 692.069 828.128 671.085 804.474 635.225C756.536 562.552 803.043 458.221 863.249 398.902C900.56 362.14 954.087 332.813 1015.91 313.038ZM1015.91 313.038C1067.46 296.546 1124.79 286.698 1183.29 284.721C1268.29 281.849 1365.12 286.285 1431.12 327.996C1443.92 336.087 1455.87 344.739 1466.94 353.841M1466.94 353.841C1515.74 393.982 1547.42 442.886 1559.46 491.049C1562.17 501.874 1585.1 558.827 1545.18 556.844C1475.92 553.404 1440.98 503.013 1430.56 466.457C1417.53 420.718 1433.03 382.518 1466.94 353.841ZM1466.94 353.841C1522.61 306.757 1627.89 285.349 1737.95 298.405C1816.27 307.696 1900.21 343.774 1909.41 396.555" stroke="#0169EA" stroke-width="765.12" stroke-linejoin="round"/>
<path d="M-1449.45 585.055C-1448.43 556.882 -1444.22 528.72 -1431.62 501.963C-1409.43 454.825 -1370.57 490.979 -1326.09 510.857C-1306.76 519.5 -1284.5 532.812 -1268.4 514.604C-1249.47 493.176 -1259.23 460.456 -1247.06 436.822C-1225.79 395.551 -1174.8 347.866 -1101.38 341.015C-1029.06 334.267 -947.941 358.752 -895.409 391.269C-859.68 413.384 -826.912 439.198 -797.672 467.045M-797.672 467.045C-741.991 520.073 -699.101 580.476 -672.918 636.757C-629.325 730.464 -576.133 962.193 -837.638 918.093C-920.944 904.045 -976.018 866.418 -996.861 813.6C-1049.14 681.129 -949.457 572.87 -818.516 481.363C-811.673 476.58 -804.725 471.804 -797.672 467.045ZM-797.672 467.045C-687.758 392.884 -552.264 323.023 -388.414 302.79C-310.76 293.201 -224.307 301.044 -142.069 319.448M-142.069 319.448C-57.9675 338.269 21.7267 368.135 83.0958 401.699C385.069 566.853 413.672 880.02 193.838 1063.94C112.374 1132.09 -38.6129 1177.96 -163.235 1109.7C-219.222 1079.03 -235.905 1052.87 -251.309 1006.11C-300.348 857.229 -272.616 691.625 -232.794 547.242C-211.478 469.954 -181.955 393.339 -142.069 319.448ZM-142.069 319.448C-81.4005 207.055 3.24334 100.966 119.449 8.40471C164.526 -27.5004 252.125 -81.9727 311.513 -110.519C380.61 -143.734 472.934 -180.677 567.85 -173.1C639.452 -167.384 684.945 -146.738 737.77 -114.795C847.133 -48.6636 904.79 38.3475 946.282 127.083C973.792 185.919 999.198 249.1 1015.91 313.039M1015.91 313.039C1037.46 395.5 1044.54 479.22 1023.02 556.501C1012.65 593.733 994.15 643.716 944.473 667.79C894.372 692.069 828.129 671.086 804.474 635.225C756.536 562.553 803.044 458.222 863.25 398.902C900.56 362.14 954.088 332.813 1015.91 313.039ZM1015.91 313.039C1067.46 296.546 1124.79 286.698 1183.29 284.722C1268.29 281.849 1365.12 286.285 1431.12 327.996C1443.92 336.087 1455.87 344.739 1466.94 353.841M1466.94 353.841C1515.74 393.982 1547.42 442.886 1559.46 491.049C1562.17 501.874 1585.1 558.827 1545.18 556.844C1475.92 553.404 1440.98 503.013 1430.56 466.457C1417.53 420.718 1433.03 382.518 1466.94 353.841ZM1466.94 353.841C1522.61 306.758 1627.89 285.349 1737.95 298.405C1816.27 307.696 1900.21 343.774 1909.41 396.556" stroke="#006CF3" stroke-width="692.251" stroke-linejoin="round"/>
<path d="M-1449.45 585.055C-1448.43 556.882 -1444.22 528.72 -1431.62 501.962C-1409.43 454.825 -1370.57 490.979 -1326.09 510.857C-1306.76 519.5 -1284.5 532.812 -1268.4 514.603C-1249.47 493.176 -1259.23 460.456 -1247.06 436.822C-1225.79 395.55 -1174.8 347.866 -1101.38 341.015C-1029.06 334.267 -947.941 358.752 -895.409 391.268C-859.68 413.384 -826.912 439.197 -797.672 467.045M-797.672 467.045C-741.991 520.073 -699.101 580.475 -672.918 636.757C-629.325 730.464 -576.133 962.192 -837.638 918.093C-920.944 904.044 -976.018 866.418 -996.861 813.6C-1049.14 681.129 -949.457 572.87 -818.516 481.363C-811.673 476.58 -804.725 471.804 -797.672 467.045ZM-797.672 467.045C-687.758 392.884 -552.264 323.023 -388.414 302.79C-310.76 293.201 -224.307 301.044 -142.069 319.448M-142.069 319.448C-57.9676 338.269 21.7265 368.135 83.0956 401.699C385.068 566.853 413.672 880.02 193.838 1063.94C112.374 1132.09 -38.6129 1177.96 -163.235 1109.7C-219.222 1079.03 -235.906 1052.87 -251.309 1006.1C-300.348 857.229 -272.616 691.625 -232.794 547.242C-211.478 469.954 -181.955 393.338 -142.069 319.448ZM-142.069 319.448C-81.4005 207.055 3.24323 100.966 119.449 8.40466C164.526 -27.5005 252.125 -81.9728 311.512 -110.519C380.61 -143.734 472.933 -180.677 567.85 -173.1C639.452 -167.384 684.945 -146.738 737.77 -114.795C847.132 -48.6636 904.79 38.3475 946.281 127.083C973.792 185.919 999.198 249.1 1015.91 313.038M1015.91 313.038C1037.46 395.5 1044.54 479.22 1023.02 556.501C1012.65 593.733 994.15 643.716 944.473 667.79C894.372 692.069 828.128 671.085 804.474 635.225C756.536 562.552 803.043 458.221 863.249 398.902C900.56 362.14 954.087 332.813 1015.91 313.038ZM1015.91 313.038C1067.46 296.546 1124.79 286.698 1183.29 284.721C1268.29 281.849 1365.12 286.285 1431.12 327.996C1443.92 336.087 1455.87 344.739 1466.94 353.841M1466.94 353.841C1515.74 393.982 1547.42 442.886 1559.46 491.049C1562.17 501.874 1585.1 558.827 1545.18 556.844C1475.92 553.404 1440.98 503.013 1430.56 466.457C1417.53 420.718 1433.03 382.518 1466.94 353.841ZM1466.94 353.841C1522.61 306.757 1627.89 285.349 1737.95 298.405C1816.27 307.696 1900.21 343.774 1909.41 396.555" stroke="#0169EA" stroke-width="619.383" stroke-linejoin="round"/>
<path d="M-1449.45 585.055C-1448.43 556.882 -1444.22 528.72 -1431.62 501.962C-1409.43 454.825 -1370.57 490.979 -1326.09 510.857C-1306.76 519.5 -1284.5 532.812 -1268.4 514.603C-1249.47 493.176 -1259.23 460.456 -1247.06 436.822C-1225.79 395.55 -1174.8 347.866 -1101.38 341.015C-1029.06 334.267 -947.941 358.752 -895.409 391.268C-859.68 413.384 -826.912 439.197 -797.672 467.045M-797.672 467.045C-741.991 520.073 -699.101 580.475 -672.918 636.757C-629.325 730.464 -576.133 962.192 -837.638 918.093C-920.944 904.044 -976.018 866.418 -996.861 813.6C-1049.14 681.129 -949.457 572.87 -818.516 481.363C-811.673 476.58 -804.725 471.804 -797.672 467.045ZM-797.672 467.045C-687.758 392.884 -552.264 323.023 -388.414 302.79C-310.76 293.201 -224.307 301.044 -142.069 319.448M-142.069 319.448C-57.9676 338.269 21.7265 368.135 83.0956 401.699C385.068 566.853 413.672 880.02 193.838 1063.94C112.374 1132.09 -38.6129 1177.96 -163.235 1109.7C-219.222 1079.03 -235.906 1052.87 -251.309 1006.1C-300.348 857.229 -272.616 691.625 -232.794 547.242C-211.478 469.954 -181.955 393.338 -142.069 319.448ZM-142.069 319.448C-81.4005 207.055 3.24323 100.966 119.449 8.40466C164.526 -27.5005 252.125 -81.9728 311.512 -110.519C380.61 -143.734 472.933 -180.677 567.85 -173.1C639.452 -167.384 684.945 -146.738 737.77 -114.795C847.132 -48.6636 904.79 38.3475 946.281 127.083C973.792 185.919 999.198 249.1 1015.91 313.038M1015.91 313.038C1037.46 395.5 1044.54 479.22 1023.02 556.501C1012.65 593.733 994.15 643.716 944.473 667.79C894.372 692.069 828.128 671.085 804.474 635.225C756.536 562.552 803.043 458.221 863.249 398.902C900.56 362.14 954.087 332.813 1015.91 313.038ZM1015.91 313.038C1067.46 296.546 1124.79 286.698 1183.29 284.721C1268.29 281.849 1365.12 286.285 1431.12 327.996C1443.92 336.087 1455.87 344.739 1466.94 353.841M1466.94 353.841C1515.74 393.982 1547.42 442.886 1559.46 491.049C1562.17 501.874 1585.1 558.827 1545.18 556.844C1475.92 553.404 1440.98 503.013 1430.56 466.457C1417.53 420.718 1433.03 382.518 1466.94 353.841ZM1466.94 353.841C1522.61 306.757 1627.89 285.349 1737.95 298.405C1816.27 307.696 1900.21 343.774 1909.41 396.555" stroke="#006CF3" stroke-width="546.514" stroke-linejoin="round"/>
<path d="M-1449.45 585.055C-1448.43 556.882 -1444.22 528.72 -1431.62 501.962C-1409.43 454.825 -1370.57 490.979 -1326.09 510.857C-1306.76 519.5 -1284.5 532.812 -1268.4 514.603C-1249.47 493.176 -1259.23 460.456 -1247.06 436.822C-1225.79 395.55 -1174.8 347.866 -1101.38 341.015C-1029.06 334.267 -947.941 358.752 -895.409 391.268C-859.68 413.384 -826.912 439.197 -797.672 467.045M-797.672 467.045C-741.991 520.073 -699.101 580.475 -672.918 636.757C-629.325 730.464 -576.133 962.192 -837.638 918.093C-920.944 904.044 -976.018 866.418 -996.861 813.6C-1049.14 681.129 -949.457 572.87 -818.516 481.363C-811.673 476.58 -804.725 471.804 -797.672 467.045ZM-797.672 467.045C-687.758 392.884 -552.264 323.023 -388.414 302.79C-310.76 293.201 -224.307 301.044 -142.069 319.448M-142.069 319.448C-57.9676 338.269 21.7265 368.135 83.0956 401.699C385.068 566.853 413.672 880.02 193.838 1063.94C112.374 1132.09 -38.6129 1177.96 -163.235 1109.7C-219.222 1079.03 -235.906 1052.87 -251.309 1006.1C-300.348 857.229 -272.616 691.625 -232.794 547.242C-211.478 469.954 -181.955 393.338 -142.069 319.448ZM-142.069 319.448C-81.4005 207.055 3.24323 100.966 119.449 8.40466C164.526 -27.5005 252.125 -81.9728 311.512 -110.519C380.61 -143.734 472.933 -180.677 567.85 -173.1C639.452 -167.384 684.945 -146.738 737.77 -114.795C847.132 -48.6636 904.79 38.3475 946.281 127.083C973.792 185.919 999.198 249.1 1015.91 313.038M1015.91 313.038C1037.46 395.5 1044.54 479.22 1023.02 556.501C1012.65 593.733 994.15 643.716 944.473 667.79C894.372 692.069 828.128 671.085 804.474 635.225C756.536 562.552 803.043 458.221 863.249 398.902C900.56 362.14 954.087 332.813 1015.91 313.038ZM1015.91 313.038C1067.46 296.546 1124.79 286.698 1183.29 284.721C1268.29 281.849 1365.12 286.285 1431.12 327.996C1443.92 336.087 1455.87 344.739 1466.94 353.841M1466.94 353.841C1515.74 393.982 1547.42 442.886 1559.46 491.049C1562.17 501.874 1585.1 558.827 1545.18 556.844C1475.92 553.404 1440.98 503.013 1430.56 466.457C1417.53 420.718 1433.03 382.518 1466.94 353.841ZM1466.94 353.841C1522.61 306.757 1627.89 285.349 1737.95 298.405C1816.27 307.696 1900.21 343.774 1909.41 396.555" stroke="#0169EA" stroke-width="473.646" stroke-linejoin="round"/>
<path d="M-1449.45 585.055C-1448.43 556.882 -1444.22 528.72 -1431.62 501.962C-1409.43 454.825 -1370.57 490.979 -1326.09 510.857C-1306.76 519.5 -1284.5 532.812 -1268.4 514.603C-1249.47 493.176 -1259.23 460.456 -1247.06 436.822C-1225.79 395.55 -1174.8 347.866 -1101.38 341.015C-1029.06 334.267 -947.941 358.752 -895.409 391.268C-859.68 413.384 -826.912 439.197 -797.672 467.045M-797.672 467.045C-741.991 520.073 -699.101 580.475 -672.918 636.757C-629.325 730.464 -576.133 962.192 -837.638 918.093C-920.944 904.044 -976.018 866.418 -996.861 813.6C-1049.14 681.129 -949.457 572.87 -818.516 481.363C-811.673 476.58 -804.725 471.804 -797.672 467.045ZM-797.672 467.045C-687.758 392.884 -552.264 323.023 -388.414 302.79C-310.76 293.201 -224.307 301.044 -142.069 319.448M-142.069 319.448C-57.9676 338.269 21.7265 368.135 83.0956 401.699C385.068 566.853 413.672 880.02 193.838 1063.94C112.374 1132.09 -38.6129 1177.96 -163.235 1109.7C-219.222 1079.03 -235.906 1052.87 -251.309 1006.1C-300.348 857.229 -272.616 691.625 -232.794 547.242C-211.478 469.954 -181.955 393.338 -142.069 319.448ZM-142.069 319.448C-81.4005 207.055 3.24323 100.966 119.449 8.40466C164.526 -27.5005 252.125 -81.9728 311.512 -110.519C380.61 -143.734 472.933 -180.677 567.85 -173.1C639.452 -167.384 684.945 -146.738 737.77 -114.795C847.132 -48.6636 904.79 38.3475 946.281 127.083C973.792 185.919 999.198 249.1 1015.91 313.038M1015.91 313.038C1037.46 395.5 1044.54 479.22 1023.02 556.501C1012.65 593.733 994.15 643.716 944.473 667.79C894.372 692.069 828.128 671.085 804.474 635.225C756.536 562.552 803.043 458.221 863.249 398.902C900.56 362.14 954.087 332.813 1015.91 313.038ZM1015.91 313.038C1067.46 296.546 1124.79 286.698 1183.29 284.721C1268.29 281.849 1365.12 286.285 1431.12 327.996C1443.92 336.087 1455.87 344.739 1466.94 353.841M1466.94 353.841C1515.74 393.982 1547.42 442.886 1559.46 491.049C1562.17 501.874 1585.1 558.827 1545.18 556.844C1475.92 553.404 1440.98 503.013 1430.56 466.457C1417.53 420.718 1433.03 382.518 1466.94 353.841ZM1466.94 353.841C1522.61 306.757 1627.89 285.349 1737.95 298.405C1816.27 307.696 1900.21 343.774 1909.41 396.555" stroke="#006CF3" stroke-width="400.777" stroke-linejoin="round"/>
<path d="M-1449.45 585.055C-1448.43 556.882 -1444.22 528.72 -1431.62 501.962C-1409.43 454.825 -1370.57 490.979 -1326.09 510.857C-1306.76 519.5 -1284.5 532.812 -1268.4 514.603C-1249.47 493.176 -1259.23 460.456 -1247.06 436.822C-1225.79 395.55 -1174.8 347.866 -1101.38 341.015C-1029.06 334.267 -947.941 358.752 -895.409 391.268C-859.68 413.384 -826.912 439.197 -797.672 467.045M-797.672 467.045C-741.991 520.073 -699.101 580.475 -672.918 636.757C-629.325 730.464 -576.133 962.192 -837.638 918.093C-920.944 904.044 -976.018 866.418 -996.861 813.6C-1049.14 681.129 -949.457 572.87 -818.516 481.363C-811.673 476.58 -804.725 471.804 -797.672 467.045ZM-797.672 467.045C-687.758 392.884 -552.264 323.023 -388.414 302.79C-310.76 293.201 -224.307 301.044 -142.069 319.448M-142.069 319.448C-57.9676 338.269 21.7265 368.135 83.0956 401.699C385.068 566.853 413.672 880.02 193.838 1063.94C112.374 1132.09 -38.6129 1177.96 -163.235 1109.7C-219.222 1079.03 -235.906 1052.87 -251.309 1006.1C-300.348 857.229 -272.616 691.625 -232.794 547.242C-211.478 469.954 -181.955 393.338 -142.069 319.448ZM-142.069 319.448C-81.4005 207.055 3.24323 100.966 119.449 8.40466C164.526 -27.5005 252.125 -81.9728 311.512 -110.519C380.61 -143.734 472.933 -180.677 567.85 -173.1C639.452 -167.384 684.945 -146.738 737.77 -114.795C847.132 -48.6636 904.79 38.3475 946.281 127.083C973.792 185.919 999.198 249.1 1015.91 313.038M1015.91 313.038C1037.46 395.5 1044.54 479.22 1023.02 556.501C1012.65 593.733 994.15 643.716 944.473 667.79C894.372 692.069 828.128 671.085 804.474 635.225C756.536 562.552 803.043 458.221 863.249 398.902C900.56 362.14 954.087 332.813 1015.91 313.038ZM1015.91 313.038C1067.46 296.546 1124.79 286.698 1183.29 284.721C1268.29 281.849 1365.12 286.285 1431.12 327.996C1443.92 336.087 1455.87 344.739 1466.94 353.841M1466.94 353.841C1515.74 393.982 1547.42 442.886 1559.46 491.049C1562.17 501.874 1585.1 558.827 1545.18 556.844C1475.92 553.404 1440.98 503.013 1430.56 466.457C1417.53 420.718 1433.03 382.518 1466.94 353.841ZM1466.94 353.841C1522.61 306.757 1627.89 285.349 1737.95 298.405C1816.27 307.696 1900.21 343.774 1909.41 396.555" stroke="#0169EA" stroke-width="327.909" stroke-linejoin="round"/>
<path d="M-1449.45 585.055C-1448.43 556.882 -1444.22 528.72 -1431.62 501.962C-1409.43 454.825 -1370.57 490.979 -1326.09 510.857C-1306.76 519.5 -1284.5 532.812 -1268.4 514.603C-1249.47 493.176 -1259.23 460.456 -1247.06 436.822C-1225.79 395.55 -1174.8 347.866 -1101.38 341.015C-1029.06 334.267 -947.941 358.752 -895.409 391.268C-859.68 413.384 -826.912 439.197 -797.672 467.045M-797.672 467.045C-741.991 520.073 -699.101 580.475 -672.918 636.757C-629.325 730.464 -576.133 962.192 -837.638 918.093C-920.944 904.044 -976.018 866.418 -996.861 813.6C-1049.14 681.129 -949.457 572.87 -818.516 481.363C-811.673 476.58 -804.725 471.804 -797.672 467.045ZM-797.672 467.045C-687.758 392.884 -552.264 323.023 -388.414 302.79C-310.76 293.201 -224.307 301.044 -142.069 319.448M-142.069 319.448C-57.9676 338.269 21.7265 368.135 83.0956 401.699C385.068 566.853 413.672 880.02 193.838 1063.94C112.374 1132.09 -38.6129 1177.96 -163.235 1109.7C-219.222 1079.03 -235.906 1052.87 -251.309 1006.1C-300.348 857.229 -272.616 691.625 -232.794 547.242C-211.478 469.954 -181.955 393.338 -142.069 319.448ZM-142.069 319.448C-81.4005 207.055 3.24323 100.966 119.449 8.40466C164.526 -27.5005 252.125 -81.9728 311.512 -110.519C380.61 -143.734 472.933 -180.677 567.85 -173.1C639.452 -167.384 684.945 -146.738 737.77 -114.795C847.132 -48.6636 904.79 38.3475 946.281 127.083C973.792 185.919 999.198 249.1 1015.91 313.038M1015.91 313.038C1037.46 395.5 1044.54 479.22 1023.02 556.501C1012.65 593.733 994.15 643.716 944.473 667.79C894.372 692.069 828.128 671.085 804.474 635.225C756.536 562.552 803.043 458.221 863.249 398.902C900.56 362.14 954.087 332.813 1015.91 313.038ZM1015.91 313.038C1067.46 296.546 1124.79 286.698 1183.29 284.721C1268.29 281.849 1365.12 286.285 1431.12 327.996C1443.92 336.087 1455.87 344.739 1466.94 353.841M1466.94 353.841C1515.74 393.982 1547.42 442.886 1559.46 491.049C1562.17 501.874 1585.1 558.827 1545.18 556.844C1475.92 553.404 1440.98 503.013 1430.56 466.457C1417.53 420.718 1433.03 382.518 1466.94 353.841ZM1466.94 353.841C1522.61 306.757 1627.89 285.349 1737.95 298.405C1816.27 307.696 1900.21 343.774 1909.41 396.555" stroke="#006CF3" stroke-width="255.04" stroke-linejoin="round"/>
<path d="M-1449.45 585.055C-1448.43 556.882 -1444.22 528.72 -1431.62 501.962C-1409.43 454.825 -1370.57 490.979 -1326.09 510.857C-1306.76 519.5 -1284.5 532.812 -1268.4 514.603C-1249.47 493.176 -1259.23 460.456 -1247.06 436.822C-1225.79 395.551 -1174.8 347.866 -1101.38 341.015C-1029.06 334.267 -947.941 358.752 -895.409 391.268C-859.68 413.384 -826.912 439.198 -797.672 467.045M-797.672 467.045C-741.991 520.073 -699.101 580.475 -672.918 636.757C-629.325 730.464 -576.133 962.192 -837.638 918.093C-920.944 904.045 -976.018 866.418 -996.861 813.6C-1049.14 681.129 -949.457 572.87 -818.516 481.363C-811.673 476.58 -804.725 471.804 -797.672 467.045ZM-797.672 467.045C-687.758 392.884 -552.264 323.023 -388.414 302.79C-310.76 293.201 -224.307 301.044 -142.069 319.448M-142.069 319.448C-57.9676 338.269 21.7266 368.135 83.0957 401.699C385.068 566.853 413.672 880.02 193.838 1063.94C112.374 1132.09 -38.6129 1177.96 -163.235 1109.7C-219.222 1079.03 -235.905 1052.87 -251.309 1006.1C-300.348 857.229 -272.616 691.625 -232.794 547.242C-211.478 469.954 -181.955 393.339 -142.069 319.448ZM-142.069 319.448C-81.4005 207.055 3.24326 100.966 119.449 8.40468C164.526 -27.5005 252.125 -81.9728 311.512 -110.519C380.61 -143.734 472.933 -180.677 567.85 -173.1C639.451 -167.384 684.945 -146.738 737.77 -114.795C847.132 -48.6636 904.79 38.3475 946.282 127.083C973.792 185.919 999.198 249.1 1015.91 313.038M1015.91 313.038C1037.46 395.5 1044.54 479.22 1023.02 556.501C1012.65 593.733 994.15 643.716 944.473 667.79C894.372 692.069 828.128 671.085 804.474 635.225C756.536 562.552 803.044 458.221 863.249 398.902C900.56 362.14 954.088 332.813 1015.91 313.038ZM1015.91 313.038C1067.46 296.546 1124.79 286.698 1183.29 284.721C1268.29 281.849 1365.12 286.285 1431.12 327.996C1443.92 336.087 1455.87 344.739 1466.94 353.841M1466.94 353.841C1515.74 393.982 1547.42 442.886 1559.46 491.049C1562.17 501.874 1585.1 558.827 1545.18 556.844C1475.92 553.404 1440.98 503.013 1430.56 466.457C1417.53 420.718 1433.03 382.518 1466.94 353.841ZM1466.94 353.841C1522.61 306.758 1627.89 285.349 1737.95 298.405C1816.27 307.696 1900.21 343.774 1909.41 396.555" stroke="#0169EA" stroke-width="182.171" stroke-linejoin="round"/>
<path d="M-1449.45 585.055C-1448.43 556.882 -1444.22 528.72 -1431.62 501.962C-1409.43 454.825 -1370.57 490.979 -1326.09 510.857C-1306.76 519.5 -1284.5 532.812 -1268.4 514.603C-1249.47 493.176 -1259.23 460.456 -1247.06 436.822C-1225.79 395.55 -1174.8 347.866 -1101.38 341.015C-1029.06 334.267 -947.941 358.752 -895.409 391.268C-859.68 413.384 -826.912 439.197 -797.672 467.045M-797.672 467.045C-741.991 520.073 -699.101 580.475 -672.918 636.757C-629.325 730.464 -576.133 962.192 -837.638 918.093C-920.944 904.044 -976.018 866.418 -996.861 813.6C-1049.14 681.129 -949.457 572.87 -818.516 481.363C-811.673 476.58 -804.725 471.804 -797.672 467.045ZM-797.672 467.045C-687.758 392.884 -552.264 323.023 -388.414 302.79C-310.76 293.201 -224.307 301.044 -142.069 319.448M-142.069 319.448C-57.9676 338.269 21.7265 368.135 83.0956 401.699C385.068 566.853 413.672 880.02 193.838 1063.94C112.374 1132.09 -38.6129 1177.96 -163.235 1109.7C-219.222 1079.03 -235.906 1052.87 -251.309 1006.1C-300.348 857.229 -272.616 691.625 -232.794 547.242C-211.478 469.954 -181.955 393.338 -142.069 319.448ZM-142.069 319.448C-81.4005 207.055 3.24323 100.966 119.449 8.40466C164.526 -27.5005 252.125 -81.9728 311.512 -110.519C380.61 -143.734 472.933 -180.677 567.85 -173.1C639.452 -167.384 684.945 -146.738 737.77 -114.795C847.132 -48.6636 904.79 38.3475 946.281 127.083C973.792 185.919 999.198 249.1 1015.91 313.038M1015.91 313.038C1037.46 395.5 1044.54 479.22 1023.02 556.501C1012.65 593.733 994.15 643.716 944.473 667.79C894.372 692.069 828.128 671.085 804.474 635.225C756.536 562.552 803.043 458.221 863.249 398.902C900.56 362.14 954.087 332.813 1015.91 313.038ZM1015.91 313.038C1067.46 296.546 1124.79 286.698 1183.29 284.721C1268.29 281.849 1365.12 286.285 1431.12 327.996C1443.92 336.087 1455.87 344.739 1466.94 353.841M1466.94 353.841C1515.74 393.982 1547.42 442.886 1559.46 491.049C1562.17 501.874 1585.1 558.827 1545.18 556.844C1475.92 553.404 1440.98 503.013 1430.56 466.457C1417.53 420.718 1433.03 382.518 1466.94 353.841ZM1466.94 353.841C1522.61 306.757 1627.89 285.349 1737.95 298.405C1816.27 307.696 1900.21 343.774 1909.41 396.555" stroke="#006CF3" stroke-width="109.303" stroke-linejoin="round"/>
<path d="M-1449.45 585.055C-1448.43 556.882 -1444.22 528.72 -1431.62 501.962C-1409.43 454.825 -1370.57 490.979 -1326.09 510.857C-1306.76 519.5 -1284.5 532.812 -1268.4 514.603C-1249.47 493.176 -1259.23 460.456 -1247.06 436.822C-1225.79 395.55 -1174.8 347.866 -1101.38 341.015C-1029.06 334.267 -947.941 358.752 -895.409 391.268C-859.68 413.384 -826.912 439.197 -797.672 467.045M-797.672 467.045C-741.991 520.073 -699.101 580.475 -672.918 636.757C-629.325 730.464 -576.133 962.192 -837.638 918.093C-920.944 904.044 -976.018 866.418 -996.861 813.6C-1049.14 681.129 -949.457 572.87 -818.516 481.363C-811.673 476.58 -804.725 471.804 -797.672 467.045ZM-797.672 467.045C-687.758 392.884 -552.264 323.023 -388.414 302.79C-310.76 293.201 -224.307 301.044 -142.069 319.448M-142.069 319.448C-57.9676 338.269 21.7265 368.135 83.0956 401.699C385.068 566.853 413.672 880.02 193.838 1063.94C112.374 1132.09 -38.6129 1177.96 -163.235 1109.7C-219.222 1079.03 -235.906 1052.87 -251.309 1006.1C-300.348 857.229 -272.616 691.625 -232.794 547.242C-211.478 469.954 -181.955 393.338 -142.069 319.448ZM-142.069 319.448C-81.4005 207.055 3.24323 100.966 119.449 8.40466C164.526 -27.5005 252.125 -81.9728 311.512 -110.519C380.61 -143.734 472.933 -180.677 567.85 -173.1C639.452 -167.384 684.945 -146.738 737.77 -114.795C847.132 -48.6636 904.79 38.3475 946.281 127.083C973.792 185.919 999.198 249.1 1015.91 313.038M1015.91 313.038C1037.46 395.5 1044.54 479.22 1023.02 556.501C1012.65 593.733 994.15 643.716 944.473 667.79C894.372 692.069 828.128 671.085 804.474 635.225C756.536 562.552 803.043 458.221 863.249 398.902C900.56 362.14 954.087 332.813 1015.91 313.038ZM1015.91 313.038C1067.46 296.546 1124.79 286.698 1183.29 284.721C1268.29 281.849 1365.12 286.285 1431.12 327.996C1443.92 336.087 1455.87 344.739 1466.94 353.841M1466.94 353.841C1515.74 393.982 1547.42 442.886 1559.46 491.049C1562.17 501.874 1585.1 558.827 1545.18 556.844C1475.92 553.404 1440.98 503.013 1430.56 466.457C1417.53 420.718 1433.03 382.518 1466.94 353.841ZM1466.94 353.841C1522.61 306.757 1627.89 285.349 1737.95 298.405C1816.27 307.696 1900.21 343.774 1909.41 396.555" stroke="#0169EA" stroke-width="36.4343" stroke-linejoin="round"/>
</g>
</g>
<defs>
<linearGradient id="paint0_linear_276_1468" x1="1361.14" y1="1225.95" x2="1620.21" y2="2857.03" gradientUnits="userSpaceOnUse">
<stop stop-color="#FBFAF5"/>
<stop offset="1" stop-color="#FBFAF5" stop-opacity="0"/>
</linearGradient>
</defs>
</svg>
