<svg width="76" height="76" viewBox="0 0 76 76" fill="none" xmlns="http://www.w3.org/2000/svg">
<circle cx="38" cy="38" r="38" fill="white"/>
<path d="M18.516 51.4179C17.5796 52.0207 17.303 53.2743 17.9791 54.1592C19.9273 56.7094 22.3507 58.8674 25.1218 60.5107C28.4723 62.4974 32.2393 63.677 36.1245 63.9561C40.0097 64.2352 43.9066 63.6061 47.5067 62.1187C50.4842 60.8884 53.1912 59.0989 55.4839 56.8533C56.2795 56.0741 56.1849 54.7939 55.3443 54.0634V54.0634C54.5038 53.3329 53.2364 53.4302 52.4289 54.1971C50.5552 55.9767 48.3656 57.4003 45.9667 58.3915C42.9451 59.6399 39.6744 60.1679 36.4134 59.9337C33.1525 59.6994 29.9908 58.7094 27.1787 57.0419C24.9461 55.718 22.9825 53.996 21.3824 51.9669C20.6928 51.0925 19.4523 50.815 18.516 51.4179V51.4179Z" fill="#006CF3"/>
<line x1="19.5478" y1="53.2643" x2="19.5478" y2="61.1074" stroke="#006CF3" stroke-width="4.03355" stroke-linecap="round"/>
<line x1="2.01678" y1="-2.01678" x2="9.8598" y2="-2.01678" transform="matrix(-1 8.74228e-08 8.74228e-08 1 29.4076 55.0571)" stroke="#006CF3" stroke-width="4.03355" stroke-linecap="round"/>
<path d="M36.1744 15.9078C36.0901 14.7974 35.1194 13.9573 34.0193 14.1305C30.8491 14.6297 27.7976 15.7333 25.0333 17.388C21.691 19.3885 18.8602 22.1395 16.7651 25.4233C14.6699 28.7071 13.3679 32.4335 12.962 36.3076C12.6263 39.5117 12.9112 42.7442 13.7944 45.8295C14.1009 46.9001 15.2717 47.4264 16.3143 47.035V47.035C17.3569 46.6436 17.8747 45.4827 17.5847 44.4075C16.9119 41.9125 16.7024 39.3092 16.9728 36.7278C17.3135 33.4762 18.4063 30.3486 20.1648 27.5925C21.9233 24.8363 24.2992 22.5273 27.1044 20.8482C29.3315 19.5152 31.7807 18.6082 34.3269 18.1671C35.4242 17.977 36.2588 17.0182 36.1744 15.9078V15.9078Z" fill="#006CF3"/>
<line x1="34.0593" y1="15.9359" x2="27.1621" y2="12.202" stroke="#006CF3" stroke-width="4.03355" stroke-linecap="round"/>
<line x1="2.01678" y1="-2.01678" x2="9.8598" y2="-2.01678" transform="matrix(0.47609 -0.879397 -0.879397 -0.47609 27.7886 23.7532)" stroke="#006CF3" stroke-width="4.03355" stroke-linecap="round"/>
<path d="M58.3172 49.731C59.3012 50.2524 60.5297 49.8801 60.9705 48.8575C62.2409 45.9103 62.9367 42.7409 63.0133 39.5201C63.106 35.6259 62.291 31.7636 60.6328 28.239C58.9745 24.7143 56.5187 21.624 53.4595 19.2126C50.9294 17.2182 48.044 15.7335 44.9636 14.8332C43.8947 14.5208 42.8246 15.2299 42.599 16.3204V16.3204C42.3734 17.411 43.0786 18.4685 44.1425 18.7973C46.6114 19.5603 48.9246 20.7729 50.963 22.3797C53.5306 24.4036 55.5919 26.9974 56.9836 29.9557C58.3754 32.914 59.0594 36.1557 58.9817 39.4241C58.9199 42.019 58.3793 44.5741 57.3931 46.9626C56.9681 47.992 57.3332 49.2095 58.3172 49.731V49.731Z" fill="#006CF3"/>
<line x1="59.4227" y1="47.9275" x2="66.2622" y2="44.0889" stroke="#006CF3" stroke-width="4.03355" stroke-linecap="round"/>
<line x1="2.01678" y1="-2.01678" x2="9.8598" y2="-2.01678" transform="matrix(0.489439 0.872038 0.872038 -0.489439 56.1602 38.4519)" stroke="#006CF3" stroke-width="4.03355" stroke-linecap="round"/>
</svg>
