<svg width="42" height="456" viewBox="0 0 42 456" fill="none" xmlns="http://www.w3.org/2000/svg">
<path d="M6.23437 2C6.23437 9.36247 5.98754 16.5088 4.7641 23.8352C3.74785 29.9208 2.5293 36.1635 2.5293 42.2855C2.5293 57.263 2 72.3903 2 87.4233C2 94.8229 2.49067 102.633 7.58702 109.415C10.078 112.73 13.1289 117 17.5848 119.354C20.196 120.734 22.1254 121.784 25.289 122.602C26.8901 123.016 31.4305 123.188 32.9638 122.622C37.365 120.995 37.6487 118.285 38.639 115.402C39.3923 113.209 38.9691 111.712 37.3452 109.767C35.1364 107.122 30.5905 106.95 26.6123 106.95C19.3834 106.95 17.9783 112.833 14.9972 115.95C14.394 116.58 13.7284 118.249 13.6445 119.002C13.4235 120.987 11.9906 122.828 11.5273 124.754C10.9005 127.361 9.61266 130.031 9.41015 132.659C9.26386 134.557 7.90122 136.402 7.82226 138.294C7.59167 143.817 7.29296 149.302 7.29296 154.846C7.29296 155.813 3.5 184.5 20.5 210" stroke="#016DF4" stroke-width="3" stroke-linecap="round"/>
<path d="M32.04 159.484C32.04 159.585 32.0107 159.665 31.952 159.724C31.888 159.782 31.8053 159.812 31.704 159.812L26.656 159.812C26.5547 159.812 26.4747 159.782 26.416 159.724C26.352 159.665 26.32 159.585 26.32 159.484C26.32 159.382 26.352 159.302 26.416 159.244C26.4747 159.185 26.5547 159.156 26.656 159.156L31.704 159.156C31.8053 159.156 31.888 159.185 31.952 159.244C32.0107 159.302 32.04 159.382 32.04 159.484ZM32.04 156.069C32.04 156.17 32.0107 156.253 31.952 156.317C31.888 156.376 31.8053 156.405 31.704 156.405L26.92 156.405L26.92 158.125C26.92 158.221 26.896 158.296 26.848 158.349C26.8 158.402 26.7307 158.429 26.64 158.429C26.5493 158.429 26.48 158.402 26.432 158.349C26.384 158.296 26.36 158.221 26.36 158.125L26.36 154.021C26.36 153.925 26.384 153.85 26.432 153.797C26.48 153.744 26.5493 153.717 26.64 153.717C26.7307 153.717 26.8 153.744 26.848 153.797C26.896 153.85 26.92 153.925 26.92 154.021L26.92 155.741L31.704 155.741C31.8053 155.741 31.888 155.77 31.952 155.829C32.0107 155.888 32.04 155.968 32.04 156.069ZM32 152.648C32 152.749 31.9707 152.832 31.912 152.896C31.8533 152.954 31.776 152.984 31.68 152.984L26.68 152.984C26.584 152.984 26.5067 152.954 26.448 152.896C26.3893 152.832 26.36 152.749 26.36 152.648L26.36 149.656C26.36 149.56 26.384 149.485 26.432 149.432C26.48 149.378 26.5467 149.352 26.632 149.352C26.7173 149.352 26.784 149.378 26.832 149.432C26.88 149.485 26.904 149.56 26.904 149.656L26.904 152.336L28.864 152.336L28.864 149.816C28.864 149.72 28.888 149.645 28.936 149.592C28.984 149.538 29.0507 149.512 29.136 149.512C29.2213 149.512 29.288 149.538 29.336 149.592C29.384 149.645 29.408 149.72 29.408 149.816L29.408 152.336L31.456 152.336L31.456 149.656C31.456 149.56 31.48 149.485 31.528 149.432C31.5707 149.378 31.6373 149.352 31.728 149.352C31.8133 149.352 31.88 149.378 31.928 149.432C31.976 149.485 32 149.56 32 149.656L32 152.648ZM31.592 144.023C31.6507 143.986 31.712 143.967 31.776 143.967C31.856 143.967 31.9227 143.999 31.976 144.063C32.024 144.122 32.048 144.191 32.048 144.271C32.048 144.394 31.9947 144.49 31.888 144.559L30.192 145.631C29.9733 145.77 29.824 145.914 29.744 146.063C29.6587 146.213 29.616 146.415 29.616 146.671L29.616 147.679L31.704 147.679C31.8053 147.679 31.888 147.709 31.952 147.767C32.0107 147.826 32.04 147.903 32.04 147.999C32.04 148.101 32.0107 148.181 31.952 148.239C31.888 148.298 31.8053 148.327 31.704 148.327L26.68 148.327C26.584 148.327 26.5067 148.298 26.448 148.239C26.3893 148.175 26.36 148.093 26.36 147.991L26.36 146.007C26.36 145.394 26.496 144.927 26.768 144.607C27.04 144.282 27.44 144.119 27.968 144.119C28.416 144.119 28.776 144.25 29.048 144.511C29.32 144.767 29.4853 145.135 29.544 145.615C29.5867 145.482 29.656 145.362 29.752 145.255C29.848 145.149 29.9813 145.042 30.152 144.935L31.592 144.023ZM29.072 146.063C29.072 145.626 28.9813 145.301 28.8 145.087C28.6187 144.869 28.344 144.759 27.976 144.759C27.6133 144.759 27.344 144.866 27.168 145.079C26.992 145.293 26.904 145.621 26.904 146.063L26.904 147.679L29.072 147.679L29.072 146.063ZM31.624 138.034C31.6667 138.013 31.712 138.002 31.76 138.002C31.84 138.002 31.9067 138.034 31.96 138.098C32.0133 138.157 32.04 138.229 32.04 138.314C32.04 138.447 31.976 138.541 31.848 138.594L30.552 139.162L30.552 142.178L31.848 142.754C31.976 142.807 32.04 142.901 32.04 143.034C32.04 143.119 32.0133 143.194 31.96 143.258C31.9013 143.322 31.832 143.354 31.752 143.354C31.7093 143.354 31.6667 143.343 31.624 143.322L26.536 141.034C26.4613 141.002 26.4053 140.954 26.368 140.89C26.3307 140.826 26.312 140.757 26.312 140.682C26.312 140.602 26.3333 140.53 26.376 140.466C26.4133 140.402 26.4667 140.354 26.536 140.322L31.624 138.034ZM30.008 141.938L30.008 139.402L27.136 140.674L30.008 141.938ZM32.04 136.046C32.04 136.147 32.0107 136.23 31.952 136.294C31.888 136.352 31.8053 136.382 31.704 136.382L26.92 136.382L26.92 138.102C26.92 138.198 26.896 138.272 26.848 138.326C26.8 138.379 26.7307 138.406 26.64 138.406C26.5493 138.406 26.48 138.379 26.432 138.326C26.384 138.272 26.36 138.198 26.36 138.102L26.36 133.998C26.36 133.902 26.384 133.827 26.432 133.774C26.48 133.72 26.5493 133.693 26.64 133.693C26.7307 133.693 26.8 133.72 26.848 133.774C26.896 133.827 26.92 133.902 26.92 133.998L26.92 135.718L31.704 135.718C31.8053 135.718 31.888 135.747 31.952 135.806C32.0107 135.864 32.04 135.944 32.04 136.046ZM32 132.624C32 132.726 31.9707 132.808 31.912 132.872C31.8533 132.931 31.776 132.96 31.68 132.96L26.68 132.96C26.584 132.96 26.5067 132.931 26.448 132.872C26.3893 132.808 26.36 132.726 26.36 132.624L26.36 129.632C26.36 129.536 26.384 129.462 26.432 129.408C26.48 129.355 26.5467 129.328 26.632 129.328C26.7173 129.328 26.784 129.355 26.832 129.408C26.88 129.462 26.904 129.536 26.904 129.632L26.904 132.312L28.864 132.312L28.864 129.792C28.864 129.696 28.888 129.622 28.936 129.568C28.984 129.515 29.0507 129.488 29.136 129.488C29.2213 129.488 29.288 129.515 29.336 129.568C29.384 129.622 29.408 129.696 29.408 129.792L29.408 132.312L31.456 132.312L31.456 129.632C31.456 129.536 31.48 129.462 31.528 129.408C31.5707 129.355 31.6373 129.328 31.728 129.328C31.8133 129.328 31.88 129.355 31.928 129.408C31.976 129.462 32 129.536 32 129.632L32 132.624Z" fill="#006CF3"/>
<path d="M20.2457 209.822C23.9079 215.597 27.4927 221.383 30.9153 227.306C36.2136 236.477 38.5598 246.158 39.6019 256.578C40.5691 266.251 39.7864 276.202 37.3394 285.57C35.0012 294.523 34.3061 306.904 26.0274 312.636C17.599 318.471 4.59534 299.629 18.8491 299.312C24.9499 299.177 30.1326 300.987 33.066 306.854C34.8359 310.394 35.6199 314.196 35.8032 318.138C36.0514 323.472 36.3096 329.306 35.7194 334.617C35.1147 340.06 33.3506 345.954 31.1946 350.985C30.3167 353.033 28.6974 354.662 27.8988 356.739C26.8346 359.506 22.9541 361.73 20.8601 363.777C17.8015 366.768 15.5085 369.889 13.235 373.441C9.24976 379.668 8.17947 388.638 8.17947 395.842C8.17947 399.566 8.17947 403.29 8.17947 407.014C8.17947 410.412 7.17748 415.484 10.9726 417.209C13.612 418.409 19.0242 419.025 19.715 415.226C20.3486 411.741 18.8526 410.24 15.2181 410.422C7.56071 410.805 9.18499 424.449 9.18499 428.829C9.18499 435.336 8.55886 440.933 11.3915 446.816C12.6639 449.459 14.9658 451.646 16.2236 454.162" stroke="url(#paint0_linear_284_866)" stroke-width="3" stroke-linecap="round"/>
<defs>
<linearGradient id="paint0_linear_284_866" x1="24.0322" y1="209.822" x2="24.0322" y2="454.162" gradientUnits="userSpaceOnUse">
<stop stop-color="#016DF4"/>
<stop offset="1" stop-color="#016DF4" stop-opacity="0"/>
</linearGradient>
</defs>
</svg>
