<svg width="44" height="45" viewBox="0 0 44 45" fill="none" xmlns="http://www.w3.org/2000/svg">
<rect y="25.8759" width="26" height="6" rx="3" transform="rotate(-27.6996 0 25.8759)" fill="#006CF3"/>
<rect x="0.40332" y="16.0638" width="12.0818" height="6" rx="3" transform="rotate(-27.6996 0.40332 16.0638)" fill="#006CF3"/>
<rect x="13.7568" y="9.05322" width="17.0312" height="6" rx="3" transform="rotate(-27.6996 13.7568 9.05322)" fill="#006CF3"/>
<rect x="4.90039" y="32.3385" width="15.6651" height="6" rx="3" transform="rotate(-27.6996 4.90039 32.3385)" fill="#006CF3"/>
<rect x="12.5" y="37.9489" width="19.5443" height="6" rx="3" transform="rotate(-27.6996 12.5 37.9489)" fill="#006CF3"/>
<rect x="22.312" y="23.1974" width="20.4466" height="6" rx="3" transform="rotate(-27.6996 22.312 23.1974)" fill="#006CF3"/>
<rect x="26.562" y="11.9307" width="12" height="6" rx="3" transform="rotate(-27.6996 26.562 11.9307)" fill="#006CF3"/>
<rect x="34.2317" y="26.5398" width="7" height="6" rx="3" transform="rotate(-27.6996 34.2317 26.5398)" fill="#006CF3"/>
<path d="M36.8659 35.3218L24.0276 42.062C23.7857 42.189 23.8953 42.5836 24.1684 42.5728C26.1753 42.4936 28.7062 42.4293 31.6089 40.9054C34.5115 39.3815 36.0016 37.3347 37.2065 35.7278C37.3704 35.5091 37.1078 35.1948 36.8659 35.3218Z" fill="#006CF3"/>
<path d="M6.38581 9.53467L19.2241 2.79455C19.466 2.66752 19.3564 2.27293 19.0833 2.28371C17.0764 2.36292 14.5455 2.42722 11.6428 3.95112C8.74021 5.47501 7.25008 7.52178 6.04526 9.12873C5.88133 9.34737 6.14386 9.6617 6.38581 9.53467Z" fill="#006CF3"/>
</svg>
