<svg width="40" height="40" viewBox="0 0 40 40" fill="none" xmlns="http://www.w3.org/2000/svg">
<path fill-rule="evenodd" clip-rule="evenodd" d="M20 40C31.0457 40 40 31.0457 40 20C40 8.9543 31.0457 0 20 0C8.9543 0 0 8.9543 0 20C0 31.0457 8.9543 40 20 40Z" fill="#006CF3"/>
<path d="M25.3767 25.96C25.7607 25.96 26.0487 26.048 26.2407 26.224C26.4487 26.4 26.5527 26.648 26.5527 26.968C26.5527 27.656 26.1607 28 25.3767 28H16.1127C15.7607 28 15.4807 27.904 15.2727 27.712C15.0807 27.504 14.9847 27.248 14.9847 26.944C14.9847 26.576 15.1287 26.24 15.4167 25.936L21.0567 19.768C21.8087 18.952 22.3527 18.208 22.6887 17.536C23.0247 16.864 23.1927 16.2 23.1927 15.544C23.1927 14.696 22.9447 14.048 22.4487 13.6C21.9687 13.136 21.2807 12.904 20.3847 12.904C19.0247 12.904 17.6727 13.424 16.3287 14.464C16.1527 14.576 16.0007 14.664 15.8727 14.728C15.7607 14.776 15.6407 14.8 15.5127 14.8C15.2887 14.8 15.0967 14.696 14.9367 14.488C14.7767 14.28 14.6967 14.032 14.6967 13.744C14.6967 13.344 14.8567 13.024 15.1767 12.784C15.8487 12.208 16.6567 11.752 17.6007 11.416C18.5447 11.064 19.4967 10.888 20.4567 10.888C22.0407 10.888 23.2967 11.296 24.2247 12.112C25.1687 12.912 25.6407 14 25.6407 15.376C25.6407 16.352 25.4247 17.28 24.9927 18.16C24.5767 19.04 23.8727 20.024 22.8807 21.112L18.3447 25.96H25.3767Z" fill="white"/>
</svg>
