<svg width="41" height="297" viewBox="0 0 41 297" fill="none" xmlns="http://www.w3.org/2000/svg">
<path d="M6.23437 2C6.23437 9.36247 5.98754 16.5088 4.7641 23.8352C3.74785 29.9208 2.5293 36.1635 2.5293 42.2855C2.5293 57.263 2 72.3903 2 87.4233C2 94.8229 2.49067 102.633 7.58702 109.415C10.078 112.73 13.1289 117 17.5848 119.354C20.196 120.734 22.1254 121.784 25.289 122.602C26.8901 123.016 31.4306 123.188 32.9638 122.622C37.365 120.995 37.6487 118.285 38.6391 115.402C39.3923 113.209 38.9691 111.712 37.3452 109.767C35.1364 107.122 30.5905 106.95 26.6123 106.95C19.3834 106.95 17.9783 112.833 14.9972 115.95C14.394 116.58 13.7284 118.249 13.6445 119.002C13.4235 120.987 11.9906 122.828 11.5273 124.754C10.9005 127.361 9.61266 130.031 9.41014 132.659C9.26386 134.557 7.90122 136.402 7.82226 138.294C7.59167 143.817 5.95485 148.983 6.5 154.5C14.9972 240.5 -1 225.5 17.5848 295.5" stroke="#016DF4" stroke-width="3" stroke-linecap="round"/>
<path d="M32.04 160.484C32.04 160.585 32.0107 160.665 31.952 160.724C31.888 160.782 31.8053 160.812 31.704 160.812L26.656 160.812C26.5547 160.812 26.4747 160.782 26.416 160.724C26.352 160.665 26.32 160.585 26.32 160.484C26.32 160.382 26.352 160.302 26.416 160.244C26.4747 160.185 26.5547 160.156 26.656 160.156L31.704 160.156C31.8053 160.156 31.888 160.185 31.952 160.244C32.0107 160.302 32.04 160.382 32.04 160.484ZM32.04 157.069C32.04 157.17 32.0107 157.253 31.952 157.317C31.888 157.376 31.8053 157.405 31.704 157.405L26.92 157.405L26.92 159.125C26.92 159.221 26.896 159.296 26.848 159.349C26.8 159.402 26.7307 159.429 26.64 159.429C26.5493 159.429 26.48 159.402 26.432 159.349C26.384 159.296 26.36 159.221 26.36 159.125L26.36 155.021C26.36 154.925 26.384 154.85 26.432 154.797C26.48 154.744 26.5493 154.717 26.64 154.717C26.7307 154.717 26.8 154.744 26.848 154.797C26.896 154.85 26.92 154.925 26.92 155.021L26.92 156.741L31.704 156.741C31.8053 156.741 31.888 156.77 31.952 156.829C32.0107 156.888 32.04 156.968 32.04 157.069ZM32 153.648C32 153.749 31.9707 153.832 31.912 153.896C31.8533 153.954 31.776 153.984 31.68 153.984L26.68 153.984C26.584 153.984 26.5067 153.954 26.448 153.896C26.3893 153.832 26.36 153.749 26.36 153.648L26.36 150.656C26.36 150.56 26.384 150.485 26.432 150.432C26.48 150.378 26.5467 150.352 26.632 150.352C26.7173 150.352 26.784 150.378 26.832 150.432C26.88 150.485 26.904 150.56 26.904 150.656L26.904 153.336L28.864 153.336L28.864 150.816C28.864 150.72 28.888 150.645 28.936 150.592C28.984 150.538 29.0507 150.512 29.136 150.512C29.2213 150.512 29.288 150.538 29.336 150.592C29.384 150.645 29.408 150.72 29.408 150.816L29.408 153.336L31.456 153.336L31.456 150.656C31.456 150.56 31.48 150.485 31.528 150.432C31.5707 150.378 31.6373 150.352 31.728 150.352C31.8133 150.352 31.88 150.378 31.928 150.432C31.976 150.485 32 150.56 32 150.656L32 153.648ZM31.592 145.023C31.6507 144.986 31.712 144.967 31.776 144.967C31.856 144.967 31.9227 144.999 31.976 145.063C32.024 145.122 32.048 145.191 32.048 145.271C32.048 145.394 31.9947 145.49 31.888 145.559L30.192 146.631C29.9733 146.77 29.824 146.914 29.744 147.063C29.6587 147.213 29.616 147.415 29.616 147.671L29.616 148.679L31.704 148.679C31.8053 148.679 31.888 148.709 31.952 148.767C32.0107 148.826 32.04 148.903 32.04 148.999C32.04 149.101 32.0107 149.181 31.952 149.239C31.888 149.298 31.8053 149.327 31.704 149.327L26.68 149.327C26.584 149.327 26.5067 149.298 26.448 149.239C26.3893 149.175 26.36 149.093 26.36 148.991L26.36 147.007C26.36 146.394 26.496 145.927 26.768 145.607C27.04 145.282 27.44 145.119 27.968 145.119C28.416 145.119 28.776 145.25 29.048 145.511C29.32 145.767 29.4853 146.135 29.544 146.615C29.5867 146.482 29.656 146.362 29.752 146.255C29.848 146.149 29.9813 146.042 30.152 145.935L31.592 145.023ZM29.072 147.063C29.072 146.626 28.9813 146.301 28.8 146.087C28.6187 145.869 28.344 145.759 27.976 145.759C27.6133 145.759 27.344 145.866 27.168 146.079C26.992 146.293 26.904 146.621 26.904 147.063L26.904 148.679L29.072 148.679L29.072 147.063ZM31.624 139.034C31.6667 139.013 31.712 139.002 31.76 139.002C31.84 139.002 31.9067 139.034 31.96 139.098C32.0133 139.157 32.04 139.229 32.04 139.314C32.04 139.447 31.976 139.541 31.848 139.594L30.552 140.162L30.552 143.178L31.848 143.754C31.976 143.807 32.04 143.901 32.04 144.034C32.04 144.119 32.0133 144.194 31.96 144.258C31.9013 144.322 31.832 144.354 31.752 144.354C31.7093 144.354 31.6667 144.343 31.624 144.322L26.536 142.034C26.4613 142.002 26.4053 141.954 26.368 141.89C26.3307 141.826 26.312 141.757 26.312 141.682C26.312 141.602 26.3333 141.53 26.376 141.466C26.4133 141.402 26.4667 141.354 26.536 141.322L31.624 139.034ZM30.008 142.938L30.008 140.402L27.136 141.674L30.008 142.938ZM32.04 137.046C32.04 137.147 32.0107 137.23 31.952 137.294C31.888 137.352 31.8053 137.382 31.704 137.382L26.92 137.382L26.92 139.102C26.92 139.198 26.896 139.272 26.848 139.326C26.8 139.379 26.7307 139.406 26.64 139.406C26.5493 139.406 26.48 139.379 26.432 139.326C26.384 139.272 26.36 139.198 26.36 139.102L26.36 134.998C26.36 134.902 26.384 134.827 26.432 134.774C26.48 134.72 26.5493 134.693 26.64 134.693C26.7307 134.693 26.8 134.72 26.848 134.774C26.896 134.827 26.92 134.902 26.92 134.998L26.92 136.718L31.704 136.718C31.8053 136.718 31.888 136.747 31.952 136.806C32.0107 136.864 32.04 136.944 32.04 137.046ZM32 133.624C32 133.726 31.9707 133.808 31.912 133.872C31.8533 133.931 31.776 133.96 31.68 133.96L26.68 133.96C26.584 133.96 26.5067 133.931 26.448 133.872C26.3893 133.808 26.36 133.726 26.36 133.624L26.36 130.632C26.36 130.536 26.384 130.462 26.432 130.408C26.48 130.355 26.5467 130.328 26.632 130.328C26.7173 130.328 26.784 130.355 26.832 130.408C26.88 130.462 26.904 130.536 26.904 130.632L26.904 133.312L28.864 133.312L28.864 130.792C28.864 130.696 28.888 130.622 28.936 130.568C28.984 130.515 29.0507 130.488 29.136 130.488C29.2213 130.488 29.288 130.515 29.336 130.568C29.384 130.622 29.408 130.696 29.408 130.792L29.408 133.312L31.456 133.312L31.456 130.632C31.456 130.536 31.48 130.462 31.528 130.408C31.5707 130.355 31.6373 130.328 31.728 130.328C31.8133 130.328 31.88 130.355 31.928 130.408C31.976 130.462 32 130.536 32 130.632L32 133.624Z" fill="#006CF3"/>
</svg>
