<svg width="40" height="40" viewBox="0 0 40 40" fill="none" xmlns="http://www.w3.org/2000/svg">
<path fill-rule="evenodd" clip-rule="evenodd" d="M20 40C31.0457 40 40 31.0457 40 20C40 8.9543 31.0457 0 20 0C8.9543 0 0 8.9543 0 20C0 31.0457 8.9543 40 20 40Z" fill="#006CF3"/>
<path d="M22.9287 19.312C23.9527 19.6 24.7287 20.096 25.2567 20.8C25.7847 21.488 26.0487 22.36 26.0487 23.416C26.0487 24.888 25.5287 26.048 24.4887 26.896C23.4647 27.744 22.0727 28.168 20.3127 28.168C19.2727 28.168 18.2727 28 17.3127 27.664C16.3687 27.328 15.5687 26.864 14.9127 26.272C14.5927 26.016 14.4327 25.696 14.4327 25.312C14.4327 25.024 14.5127 24.784 14.6727 24.592C14.8327 24.384 15.0247 24.28 15.2487 24.28C15.4887 24.28 15.7607 24.384 16.0647 24.592C16.7527 25.104 17.4247 25.496 18.0807 25.768C18.7527 26.024 19.4727 26.152 20.2407 26.152C22.5127 26.152 23.6487 25.184 23.6487 23.248C23.6487 22.304 23.3447 21.6 22.7367 21.136C22.1447 20.656 21.2407 20.416 20.0247 20.416H18.7047C18.4007 20.416 18.1607 20.32 17.9847 20.128C17.8087 19.92 17.7207 19.68 17.7207 19.408C17.7207 19.152 17.8087 18.928 17.9847 18.736C18.1607 18.528 18.4007 18.424 18.7047 18.424H19.6407C20.8087 18.424 21.6967 18.184 22.3047 17.704C22.9287 17.208 23.2407 16.488 23.2407 15.544C23.2407 14.712 22.9847 14.064 22.4727 13.6C21.9767 13.136 21.2727 12.904 20.3607 12.904C19.0167 12.904 17.6727 13.424 16.3287 14.464C16.0247 14.672 15.7527 14.776 15.5127 14.776C15.2887 14.776 15.0967 14.68 14.9367 14.488C14.7767 14.28 14.6967 14.032 14.6967 13.744C14.6967 13.36 14.8567 13.04 15.1767 12.784C15.8327 12.192 16.6247 11.728 17.5527 11.392C18.4967 11.056 19.4647 10.888 20.4567 10.888C22.0407 10.888 23.2967 11.28 24.2247 12.064C25.1687 12.848 25.6407 13.912 25.6407 15.256C25.6407 16.216 25.4007 17.056 24.9207 17.776C24.4567 18.48 23.7927 18.992 22.9287 19.312Z" fill="white"/>
</svg>
