<svg width="40" height="40" viewBox="0 0 40 40" fill="none" xmlns="http://www.w3.org/2000/svg">
<path fill-rule="evenodd" clip-rule="evenodd" d="M20 40C31.0457 40 40 31.0457 40 20C40 8.9543 31.0457 0 20 0C8.9543 0 0 8.9543 0 20C0 31.0457 8.9543 40 20 40Z" fill="#006CF3"/>
<path d="M25.2087 25.96C25.5927 25.96 25.8807 26.048 26.0727 26.224C26.2647 26.4 26.3607 26.648 26.3607 26.968C26.3607 27.656 25.9767 28 25.2087 28H17.1927C16.4087 28 16.0167 27.656 16.0167 26.968C16.0167 26.648 16.1127 26.4 16.3047 26.224C16.5127 26.048 16.8087 25.96 17.1927 25.96H19.9527V13.984L17.4807 15.544C17.3207 15.64 17.1607 15.688 17.0007 15.688C16.7287 15.688 16.4887 15.568 16.2807 15.328C16.0887 15.088 15.9927 14.816 15.9927 14.512C15.9927 14.144 16.1527 13.856 16.4727 13.648L20.1687 11.296C20.5367 11.072 20.8887 10.96 21.2247 10.96C21.5767 10.96 21.8647 11.072 22.0887 11.296C22.3127 11.52 22.4247 11.824 22.4247 12.208V25.96H25.2087Z" fill="white"/>
</svg>
