<svg width="20" height="20" viewBox="0 0 20 20" fill="none" xmlns="http://www.w3.org/2000/svg">
<path d="M10 0C4.47715 0 0 4.47715 0 10C0 12.6522 1.05357 15.1957 2.92893 17.0711C4.8043 18.9464 7.34784 20 10 20C12.6522 20 15.1957 18.9464 17.0711 17.0711C18.9464 15.1957 20 12.6522 20 10C20 7.34784 18.9464 4.8043 17.0711 2.92893C15.1957 1.05357 12.6522 0 10 0Z" fill="white"/>
<path d="M14.42 16.2201C14 14.3001 13.5 12.5301 13 10.9701C13.5 10.9001 14 10.8601 14.58 10.8601H14.6C15.53 10.8601 16.55 10.9801 17.66 11.2301C17.28 13.3001 16.08 15.0701 14.42 16.2201Z" fill="#006CF3"/>
<path d="M9.99999 17.6001C8.25999 17.6001 6.65999 17.0301 5.35999 16.0601C5.63999 15.6101 6.22999 14.7401 7.17999 13.8401C8.13999 12.9101 9.49999 11.9501 11.23 11.3801C11.82 13.0501 12.36 14.9501 12.77 17.0901C11.91 17.4201 11 17.6001 9.99999 17.6001Z" fill="#006CF3"/>
<path d="M2.19995 9.79994C2.19995 9.75994 2.19995 9.72994 2.19995 9.68994C2.41995 9.69994 2.70995 9.69994 3.04995 9.69994H3.05995C4.61995 9.68994 7.35995 9.55994 10.14 8.68994C10.29 9.01994 10.44 9.35994 10.59 9.71994C8.72995 10.3399 7.26995 11.3299 6.18995 12.2999C5.15995 13.2599 4.44995 14.1899 4.03995 14.7999C2.89995 13.4599 2.19995 11.7099 2.19995 9.79994Z" fill="#006CF3"/>
<path d="M6.54993 2.80005C7.09993 3.45005 8.17993 4.86005 9.33993 7.05005C6.99993 7.76005 4.60993 7.92005 3.17993 7.92005C3.13993 7.92005 3.09993 7.92005 3.05993 7.92005H3.04993C2.80993 7.92005 2.59993 7.92005 2.42993 7.91005C2.99993 5.67005 4.49993 3.80005 6.54993 2.80005Z" fill="#006CF3"/>
<path d="M9.99997 2C11.84 2 13.53 2.64 14.86 3.71C13.84 4.94 12.5 5.8 11.03 6.45C9.99997 4.47 8.99997 3.05 8.33997 2.18C8.87997 2.07 9.42997 2 9.99997 2Z" fill="#006CF3"/>
<path d="M16.1301 4.97998C17.1001 6.21998 17.7101 7.75998 17.7901 9.42998C16.6601 9.18998 15.6001 9.07998 14.6001 9.07998H14.5901C13.7901 9.07998 13.0401 9.14998 12.3301 9.26998C12.1601 8.84998 12.0001 8.44998 11.8101 8.05998C13.3901 7.36998 14.9001 6.37998 16.1301 4.97998Z" fill="#006CF3"/>
</svg>
