<svg width="28" height="40" viewBox="0 0 28 40" fill="none" xmlns="http://www.w3.org/2000/svg">
<path fill-rule="evenodd" clip-rule="evenodd" d="M0.154159 2.6479C0.757463 0.815648 2.08568 0.037097 3.938 0.0138356C4.90667 0.00165114 5.87645 -0.00997953 6.84484 0.0138356C10.4354 0.102727 14.0625 -0.0819789 17.6071 0.372171C22.8547 1.04426 26.5857 4.69878 27.4577 9.87609C28.2284 14.4514 27.4862 18.7456 22.2566 21.9601C21.4003 22.4862 21.4316 22.9922 21.8459 23.7709C23.5135 26.9059 25.1352 30.0655 26.782 33.2119C27.4904 34.5649 27.8343 35.9355 27.3195 37.4607C26.7457 39.1608 21.8872 43.3507 17.8164 34.8322C16.2853 31.6282 14.6363 28.4962 13.0869 25.3086C12.6715 24.454 12.1454 24.0805 11.1695 24.1045C8.77414 24.1638 6.37601 24.1419 3.97954 24.1142C2.23383 24.0943 0.866122 23.0542 0.476494 21.5272C-0.212207 18.8298 1.44018 16.6941 4.34895 16.6471C7.75895 16.5922 11.1717 16.6825 14.5806 16.6061C16.313 16.567 17.8826 15.9706 18.6259 14.221C19.3954 12.4091 19.0825 10.6731 17.843 9.17243C16.763 7.86509 15.2203 7.5278 13.61 7.51589C10.3839 7.49263 7.1572 7.52309 3.9308 7.50121C2.08845 7.48848 0.749214 6.70567 0.156651 4.86521C0.0283839 4.46682 -0.11885 3.47704 0.154159 2.6479Z" fill="#0170EF"/>
</svg>
