<svg width="54" height="25" viewBox="0 0 54 25" fill="none" xmlns="http://www.w3.org/2000/svg">
<path d="M20.7128 6.70168C20.7128 8.6879 21.8684 10.1445 24.5769 10.1445C27.2853 10.1445 28.4289 8.6879 28.4289 6.68965V1.97089H25.9612V6.61742C25.9612 7.38783 25.564 8.00175 24.5769 8.00175C23.5777 8.00175 23.1805 7.38783 23.1805 6.61742V1.97089H20.7128V6.70168ZM33.8823 10V4.08951H36.025V1.97089H29.2959V4.08951H31.4506V10H33.8823ZM44.2847 10L41.3234 1.97089H38.2658L35.3046 10H37.9408L38.2538 8.96476H41.3354L41.6484 10H44.2847ZM40.7095 6.94244H38.8798L39.7946 4.11359L40.7095 6.94244ZM52.4578 10V1.97089H50.0262V4.81177H47.1492V1.97089H44.7175V10H47.1492V6.9304H50.0262V10H52.4578ZM20.7128 18.7017C20.7128 20.6879 21.8684 22.1445 24.5769 22.1445C27.2853 22.1445 28.4289 20.6879 28.4289 18.6896V13.9709H25.9612V18.6174C25.9612 19.3878 25.564 20.0017 24.5769 20.0017C23.5777 20.0017 23.1805 19.3878 23.1805 18.6174V13.9709H20.7128V18.7017ZM37.5297 22L34.8453 17.8711L37.3491 13.9709H34.4721L33.1961 16.258L31.896 13.9709H29.0431L31.5469 17.8831L28.8625 22H31.7275L33.1961 19.5443L34.6647 22H37.5297Z" fill="white"/>
<path d="M39.0621 21.5615H39.349V20.4741H39.7382V20.2233H38.6709V20.4741H39.0621V21.5615ZM41.0845 21.5615H41.3714V20.2233H40.9701L40.6451 21.0579L40.3201 20.2233H39.9209V21.5615H40.2057V20.5985L40.5829 21.5615H40.7073L41.0845 20.5985V21.5615Z" fill="white"/>
<path d="M16.0502 20.4959L16.0502 1.97881L16.0502 1.59518C16.0502 0.856971 15.2785 0.372641 14.6137 0.693641L0.694227 7.41505C0.285039 7.61264 0.0602383 8.06102 0.146714 8.50712L2.26557 19.4373C2.28464 19.5357 2.33423 19.6256 2.4073 19.6942C2.71163 19.9798 3.21005 19.764 3.21005 19.3466L3.21005 11.9893C3.21005 11.614 3.41992 11.2702 3.75373 11.0988L8.81354 8.49956C9.47978 8.15731 10.2721 8.64107 10.2721 9.39008L10.2721 22.4355C10.2721 23.1845 11.0645 23.6683 11.7307 23.326L15.5065 21.3864C15.8403 21.2149 16.0502 20.8712 16.0502 20.4959Z" fill="white"/>
</svg>
